<?xml version='1.0' encoding='UTF-8'?>
<!DOCTYPE svg PUBLIC "-//W3C//DTD SVG 1.0//EN" "http://www.w3.org/TR/2001/REC-SVG-20010904/DTD/svg10.dtd ">
<svg height="480" viewBox="0 0 640 480" width="640" xmlns="http://www.w3.org/2000/svg" >
	<defs>
		<style type="text/css">
			<![CDATA[
				.data {
					fill: none;
					stroke: black;
					stroke-linecap: round;
					stroke-width: 1.5;
				}
				[class~="density"][id="A"] {
					fill: none;
					stroke: rgb(67, 0, 246);
				}
				[class~="density"][id="B"] {
					fill: none;
					stroke: rgb(255, 147, 0);
				}
				[class~="density"][id="X"] {
					fill: none;
					stroke: rgb(31, 234, 181);
				}
				[class~="legend"][id="A"] {
					fill: none;
					stroke: rgb(67, 0, 246);
				}
				[class~="legend"][id="B"] {
					fill: none;
					stroke: rgb(255, 147, 0);
				}
				[class~="legend"][id="X"] {
					fill: none;
					stroke: rgb(31, 234, 181);
				}
				line.axis {
					stroke: dimgrey;
					stroke-width: 0.75;
				}
				line.colorbar.tic {
					stroke: black;
					stroke-linecap: butt;
					stroke-width: 0.5;
				}
				line.scalebar {
					stroke: black;
					stroke-width: 0.75;
				}
				line.tic {
					stroke-linecap: round;
				}
				rect.colorbar {
					fill: none;
					stroke: black;
					stroke-width: 0.5;
				}
				rect.plot {
					fill: none;
					stroke: none;
				}
				text {
					font-family: Times;
				}
				text.axis {
					fill: dimgrey;
				}
				text.colorbar.label {
					fill: black;
				}
				text.label {
					font-weight: normal;
				}
				text.title {
					font-weight: bold;
				}
			]]>
		</style>
	</defs>
	<g id="axes" class="layer">
		<g id="x-axis">
			<line id="x-axis" class="axis" x1="24" x2="606" y1="432" y2="432"/>
			<g id="x-axis tics">
				<line id="tic at 500" class="axis tic" x1="29.451572" x2="29.451572" y1="429" y2="435"/>
				<line id="tic at 1000" class="axis tic" x1="92.232483" x2="92.232483" y1="429" y2="435"/>
				<line id="tic at 1500" class="axis tic" x1="155.01339" x2="155.01339" y1="429" y2="435"/>
				<line id="tic at 2000" class="axis tic" x1="217.7943" x2="217.7943" y1="429" y2="435"/>
				<line id="tic at 2500" class="axis tic" x1="280.57522" x2="280.57522" y1="429" y2="435"/>
				<line id="tic at 3000" class="axis tic" x1="343.35613" x2="343.35613" y1="429" y2="435"/>
				<line id="tic at 3500" class="axis tic" x1="406.13704" x2="406.13704" y1="429" y2="435"/>
				<line id="tic at 4000" class="axis tic" x1="468.91795" x2="468.91795" y1="429" y2="435"/>
				<line id="tic at 4500" class="axis tic" x1="531.69886" x2="531.69886" y1="429" y2="435"/>
				<line id="tic at 5000" class="axis tic" x1="594.47977" x2="594.47977" y1="429" y2="435"/>
			</g>
			<g id="x-axis small tics">
				<line id="small tic at 750" class="axis tic small" x1="60.842027" x2="60.842027" y1="430.5" y2="433.5"/>
				<line id="small tic at 1250" class="axis tic small" x1="123.62294" x2="123.62294" y1="430.5" y2="433.5"/>
				<line id="small tic at 1750" class="axis tic small" x1="186.40385" x2="186.40385" y1="430.5" y2="433.5"/>
				<line id="small tic at 2250" class="axis tic small" x1="249.18476" x2="249.18476" y1="430.5" y2="433.5"/>
				<line id="small tic at 2750" class="axis tic small" x1="311.96567" x2="311.96567" y1="430.5" y2="433.5"/>
				<line id="small tic at 3250" class="axis tic small" x1="374.74658" x2="374.74658" y1="430.5" y2="433.5"/>
				<line id="small tic at 3750" class="axis tic small" x1="437.52749" x2="437.52749" y1="430.5" y2="433.5"/>
				<line id="small tic at 4250" class="axis tic small" x1="500.3084" x2="500.3084" y1="430.5" y2="433.5"/>
				<line id="small tic at 4750" class="axis tic small" x1="563.08931" x2="563.08931" y1="430.5" y2="433.5"/>
			</g>
		</g>
		<g id="x-axis labels">
			<text font-size="12" class="axis label" text-anchor="middle" x="29.451572" y="450">500</text>
			<text font-size="12" class="axis label" text-anchor="middle" x="92.232483" y="450">1000</text>
			<text font-size="12" class="axis label" text-anchor="middle" x="155.01339" y="450">1500</text>
			<text font-size="12" class="axis label" text-anchor="middle" x="217.7943" y="450">2000</text>
			<text font-size="12" class="axis label" text-anchor="middle" x="280.57522" y="450">2500</text>
			<text font-size="12" class="axis label" text-anchor="middle" x="343.35613" y="450">3000</text>
			<text font-size="12" class="axis label" text-anchor="middle" x="406.13704" y="450">3500</text>
			<text font-size="12" class="axis label" text-anchor="middle" x="468.91795" y="450">4000</text>
			<text font-size="12" class="axis label" text-anchor="middle" x="531.69886" y="450">4500</text>
			<text font-size="12" class="axis label" text-anchor="middle" x="594.47977" y="450">5000</text>
		</g>
		<g id="y-axis">
			<line id="y-axis" class="axis" x1="24" x2="24" y1="432" y2="24"/>
			<g id="y-axis tics">
				<line id="tic at 0.0001" class="axis tic" x1="27" x2="21" y1="376.62759" y2="376.62759"/>
				<line id="tic at 0.0002" class="axis tic" x1="27" x2="21" y1="321.25519" y2="321.25519"/>
				<line id="tic at 0.0003" class="axis tic" x1="27" x2="21" y1="265.88278" y2="265.88278"/>
				<line id="tic at 0.0004" class="axis tic" x1="27" x2="21" y1="210.51038" y2="210.51038"/>
				<line id="tic at 0.0005" class="axis tic" x1="27" x2="21" y1="155.13797" y2="155.13797"/>
				<line id="tic at 0.0006" class="axis tic" x1="27" x2="21" y1="99.76557" y2="99.76557"/>
				<line id="tic at 0.0007" class="axis tic" x1="27" x2="21" y1="44.393165" y2="44.393165"/>
			</g>
			<g id="y-axis small tics">
				<line id="small tic at 5e-05" class="axis tic small" x1="25.5" x2="22.5" y1="404.3138" y2="404.3138"/>
				<line id="small tic at 5e-05" class="axis tic small" x1="25.5" x2="22.5" y1="404.3138" y2="404.3138"/>
				<line id="small tic at 0.00015" class="axis tic small" x1="25.5" x2="22.5" y1="348.94139" y2="348.94139"/>
				<line id="small tic at 0.00025" class="axis tic small" x1="25.5" x2="22.5" y1="293.56899" y2="293.56899"/>
				<line id="small tic at 0.00035" class="axis tic small" x1="25.5" x2="22.5" y1="238.19658" y2="238.19658"/>
				<line id="small tic at 0.00045" class="axis tic small" x1="25.5" x2="22.5" y1="182.82418" y2="182.82418"/>
				<line id="small tic at 0.00055" class="axis tic small" x1="25.5" x2="22.5" y1="127.45177" y2="127.45177"/>
				<line id="small tic at 0.00065" class="axis tic small" x1="25.5" x2="22.5" y1="72.079367" y2="72.079367"/>
			</g>
		</g>
		<g id="y-axis labels">
			<text font-size="12" class="axis label" text-anchor="end" x="18" y="381.12759">0.0001</text>
			<text font-size="12" class="axis label" text-anchor="end" x="18" y="325.75519">0.0002</text>
			<text font-size="12" class="axis label" text-anchor="end" x="18" y="270.38278">0.0003</text>
			<text font-size="12" class="axis label" text-anchor="end" x="18" y="215.01038">0.0004</text>
			<text font-size="12" class="axis label" text-anchor="end" x="18" y="159.63797">0.0005</text>
			<text font-size="12" class="axis label" text-anchor="end" x="18" y="104.26557">0.0006</text>
			<text font-size="12" class="axis label" text-anchor="end" x="18" y="48.893165">0.0007</text>
		</g>
	</g>
	<g id="A" class="layer">
		<path d="M 125.76252 366.39621 C128.2676,364.11881 130.77268,361.90966 133.27776,359.77259 C134.5303,358.70406 135.78284,357.65354 137.03538,356.62043 C138.28792,355.58733 139.54046,354.57162 140.793,353.57198 C142.04554,352.57235 143.29808,351.58878 144.55062,350.61924 C145.80316,349.64971 147.0557,348.6942 148.30824,347.75015 C149.56078,346.80609 150.81332,345.87348 152.06586,344.9493 C153.3184,344.02511 154.57094,343.10935 155.82349,342.1987 C157.07603,341.28804 158.32857,340.38249 159.58111,339.47854 C160.83365,338.57458 162.08619,337.67222 163.33873,336.76786 C164.59127,335.8635 165.84381,334.95714 167.09635,334.04517 C168.34889,333.1332 169.60143,332.21561 170.85397,331.28884 C172.10651,330.36207 173.35905,329.42612 174.61159,328.47747 C175.86413,327.52883 177.11667,326.56749 178.36921,325.59004 C179.62175,324.61258 180.87429,323.61901 182.12683,322.60597 C183.37937,321.59293 184.63191,320.56043 185.88445,319.50518 C187.13699,318.44993 188.38953,317.37194 189.64207,316.268 C190.89462,315.16407 192.14716,314.03419 193.3997,312.87526 C194.65224,311.71632 195.90478,310.52833 197.15732,309.30827 C198.40986,308.08821 199.6624,306.83608 200.91494,305.54904 C202.16748,304.262 203.42002,302.94005 204.67256,301.58054 C205.9251,300.22104 207.17764,298.82399 208.43018,297.38706 C209.68272,295.95013 210.93526,294.47332 212.1878,292.9547 C213.44034,291.43608 214.69288,289.87565 215.94542,288.27197 C217.19796,286.66829 218.4505,285.02135 219.70304,283.33032 C220.95558,281.6393 222.20812,279.90418 223.46066,278.12481 C224.7132,276.34545 225.96575,274.52184 227.21829,272.65461 C228.47083,270.78738 229.72337,268.87653 230.97591,266.9235 C232.22845,264.97047 233.48099,262.97527 234.73353,260.94021 C235.98607,258.90515 237.23861,256.83023 238.49115,254.71864 C239.74369,252.60706 240.99623,250.45881 242.24877,248.27795 C243.50131,246.09709 244.75385,243.88362 246.00639,241.64243 C247.25893,239.40124 248.51147,237.13233 249.76401,234.84135 C251.01655,232.55038 252.26909,230.23734 253.52163,227.90861 C254.77417,225.57987 256.02671,223.23544 257.27925,220.8823 C258.53179,218.52916 259.78433,216.16732 261.03688,213.80431 C262.28942,211.44129 263.54196,209.0771 264.7945,206.71973 C266.04704,204.36235 267.29958,202.0118 268.55212,199.67642 C269.80466,197.34104 271.0572,195.02083 272.30974,192.72445 C273.56228,190.42807 274.81482,188.15551 276.06736,185.91562 C277.3199,183.67574 278.57244,181.46852 279.82498,179.30296 C281.07752,177.1374 282.33006,175.0135 283.5826,172.94026 C284.83514,170.86702 286.08768,168.84445 287.34022,166.88153 C288.59276,164.9186 289.8453,163.01533 291.09784,161.18053 C292.35038,159.34574 293.60292,157.57944 294.85547,155.89022 C296.10801,154.201 297.36055,152.58887 298.61309,151.06209 C299.86563,149.53531 301.11817,148.09388 302.37071,146.7456 C303.62325,145.39731 304.87579,144.14216 306.12833,142.98737 C307.38087,141.83257 308.63341,140.77811 309.88595,139.83048 C311.13849,138.88285 312.39103,138.04204 313.64357,137.31367 C314.89611,136.5853 316.14865,135.96937 317.40119,135.47049 C318.65373,134.97161 319.90627,134.58978 321.15881,134.3285 C322.41135,134.06722 323.66389,133.92649 324.91643,133.90855 C326.16897,133.89061 327.42151,133.99547 328.67405,134.22405 C329.9266,134.45262 331.17914,134.80491 332.43168,135.28042 C333.68422,135.75593 334.93676,136.35467 336.1893,137.0747 C337.44184,137.79472 338.69438,138.63603 339.94692,139.59524 C341.19946,140.55445 342.452,141.63155 343.70454,142.82173 C344.95708,144.01191 346.20962,145.31516 347.46216,146.72532 C348.7147,148.13547 349.96724,149.65253 351.21978,151.26905 C352.47232,152.88557 353.72486,154.60156 354.9774,156.40846 C356.22994,158.21537 357.48248,160.11319 358.73502,162.09243 C359.98756,164.07167 361.2401,166.13234 362.49264,168.26418 C363.74518,170.39602 364.99773,172.59903 366.25027,174.86243 C367.50281,177.12583 368.75535,179.44963 370.00789,181.82271 C371.26043,184.1958 372.51297,186.61818 373.76551,189.07867 C375.01805,191.53916 376.27059,194.03776 377.52313,196.56344 C378.77567,199.08912 380.02821,201.64187 381.28075,204.211 C382.53329,206.78013 383.78583,209.36564 385.03837,211.95738 C386.29091,214.54912 387.54345,217.1471 388.79599,219.74186 C390.04853,222.33662 391.30107,224.92817 392.55361,227.50791 C393.80615,230.08765 395.05869,232.65558 396.31123,235.20405 C397.56377,237.75252 398.81631,240.28152 400.06886,242.78444 C401.3214,245.28736 402.57394,247.76418 403.82648,250.20936 C405.07902,252.65454 406.33156,255.06807 407.5841,257.44546 C408.83664,259.82286 410.08918,262.16412 411.34172,264.46585 C412.59426,266.76757 413.8468,269.02975 415.09934,271.25002 C416.35188,273.47029 417.60442,275.64865 418.85696,277.78372 C420.1095,279.91878 421.36204,282.01056 422.61458,284.05859 C423.86712,286.10662 425.11966,288.11092 426.3722,290.07188 C427.62474,292.03285 428.87728,293.95048 430.12982,295.82598 C431.38236,297.70148 432.6349,299.53485 433.88744,301.32798 C435.13999,303.1211 436.39253,304.87399 437.64507,306.58913 C438.89761,308.30428 440.15015,309.98169 441.40269,311.62438 C442.65523,313.26706 443.90777,314.87503 445.16031,316.45171 C446.41285,318.02839 447.66539,319.57378 448.91793,321.09162 C450.17047,322.60947 451.42301,324.09976 452.67555,325.56643 C453.92809,327.0331 455.18063,328.47614 456.43317,329.89957 C457.68571,331.32299 458.93825,332.72679 460.19079,334.11491 C461.44333,335.50303 462.69587,336.87546 463.94841,338.23596 C465.20095,339.59646 466.45349,340.94503 467.70603,342.2851 C468.95857,343.62517 470.21112,344.95674 471.46366,346.28282 C472.7162,347.6089 473.96874,348.92948 475.22128,350.24702 C476.47382,351.56455 477.72636,352.87904 478.9789,354.1923 C480.23144,355.50555 481.48398,356.81758 482.73652,358.12947 C483.98906,359.44137 485.2416,360.75313 486.49414,362.06512 C487.74668,363.3771 488.99922,364.6893 490.25176,366.00135 C492.75684,368.62545 495.26192,371.24894 497.767,373.86152" id="A" class="data density"/>
	</g>
	<g id="B" class="layer">
		<path d="M 50.454545 403.59272 C52.471574,402.22471 54.488603,400.77927 56.505631,399.21321 C57.514145,398.43017 58.52266,397.61698 59.531174,396.76764 C60.539688,395.91831 61.548202,395.03283 62.556717,394.10509 C63.565231,393.17735 64.573745,392.20735 65.582259,391.18898 C66.590774,390.17062 67.599288,389.1039 68.607802,387.983 C69.616317,386.8621 70.624831,385.68702 71.633345,384.4524 C72.641859,383.21778 73.650374,381.92361 74.658888,380.56513 C75.667402,379.20665 76.675916,377.78386 77.684431,376.29269 C78.692945,374.80151 79.701459,373.24195 80.709974,371.61063 C81.718488,369.97931 82.727002,368.27624 83.735516,366.49874 C84.744031,364.72123 85.752545,362.8693 86.761059,360.94085 C87.769573,359.0124 88.778088,357.00744 89.786602,354.92439 C90.795116,352.84133 91.80363,350.68017 92.812145,348.43969 C93.820659,346.19921 94.829173,343.87941 95.837688,341.47931 C96.846202,339.07921 97.854716,336.59882 98.86323,334.03732 C99.871745,331.47582 100.88026,328.83321 101.88877,326.10882 C102.89729,323.38442 103.9058,320.57824 104.91432,317.68976 C105.92283,314.80127 106.93134,311.83048 107.93986,308.77713 C108.94837,305.72378 109.95689,302.58787 110.9654,299.36959 C111.97392,296.15131 112.98243,292.85066 113.99094,289.46851 C114.99946,286.08637 116.00797,282.62272 117.01649,279.07943 C118.025,275.53613 119.03352,271.91319 120.04203,268.21372 C121.05054,264.51426 122.05906,260.73828 123.06757,256.89051 C124.07609,253.04274 125.0846,249.12318 126.09312,245.13845 C127.10163,241.15371 128.11014,237.10379 129.11866,232.99738 C130.12717,228.89097 131.13569,224.72808 132.1442,220.51958 C133.15272,216.31109 134.16123,212.057 135.16974,207.77041 C136.17826,203.48382 137.18677,199.16473 138.19529,194.82832 C139.2038,190.49191 140.21232,186.13817 141.22083,181.78406 C142.22934,177.42996 143.23786,173.07549 144.24637,168.73901 C145.25489,164.40252 146.2634,160.08402 147.27192,155.80268 C148.28043,151.52134 149.28894,147.27717 150.29746,143.08954 C151.30597,138.9019 152.31449,134.77081 153.323,130.71511 C154.33152,126.6594 155.34003,122.67909 156.34854,118.79174 C157.35706,114.9044 158.36557,111.11002 159.37409,107.42419 C160.3826,103.73835 161.39111,100.16106 162.39963,96.705238 C163.40814,93.249413 164.41666,89.915053 165.42517,86.711883 C166.43369,83.508714 167.4422,80.436735 168.45071,77.502119 C169.45923,74.567503 170.46774,71.770249 171.47626,69.11282 C172.48477,66.455392 173.49329,63.93779 174.5018,61.55886 C175.51031,59.179931 176.51883,56.939674 177.52734,54.833663 C178.53586,52.727653 179.54437,50.755889 180.55289,48.911266 C181.5614,47.066643 182.56991,45.349161 183.57843,43.749848 C184.58694,42.150534 185.59546,40.66939 186.60397,39.296565 C187.61249,37.923739 188.621,36.659234 189.62951,35.493415 C190.63803,34.327596 191.64654,33.260465 192.65506,32.283724 C193.66357,31.306984 194.67209,30.420634 195.6806,29.618768 C196.68911,28.816902 197.69763,28.099518 198.70614,27.463986 C199.71466,26.828454 200.72317,26.274774 201.73169,25.80423 C202.7402,25.333686 203.74871,24.946278 204.75723,24.647521 C205.76574,24.348764 206.77426,24.138658 207.78277,24.02689 C208.79129,23.915122 209.7998,23.901691 210.80831,24 C211.81683,24.098309 212.82534,24.308359 213.83386,24.64643 C214.84237,24.984501 215.85089,25.450594 216.8594,26.062693 C217.86791,26.674793 218.87643,27.4329 219.88494,28.355272 C220.89346,29.277643 221.90197,30.36428 222.91049,31.632127 C223.919,32.899974 224.92751,34.349032 225.93603,35.993319 C226.94454,37.637607 227.95306,39.477123 228.96157,41.521449 C229.97009,43.565774 230.9786,45.814909 231.98711,48.272704 C232.99563,50.7305 234.00414,53.396957 235.01266,56.269251 C236.02117,59.141545 237.02969,62.219675 238.0382,65.493612 C239.04671,68.767548 240.05523,72.23729 241.06374,75.885541 C242.07226,79.533792 243.08077,83.360552 244.08928,87.341682 C245.0978,91.322812 246.10631,95.458313 247.11483,99.718085 C248.12334,103.97786 249.13186,108.3619 250.14037,112.83543 C251.14888,117.30896 252.1574,121.87197 253.16591,126.48657 C254.17443,131.10117 255.18294,135.76736 256.19146,140.44589 C257.19997,145.12442 258.20848,149.81529 259.217,154.47973 C260.22551,159.14418 261.23403,163.78219 262.24254,168.35726 C263.25106,172.93232 264.25957,177.44444 265.26808,181.86091 C266.2766,186.27738 267.28511,190.5982 268.29363,194.79585 C269.30214,198.9935 270.31066,203.06796 271.31917,206.99785 C272.32768,210.92773 273.3362,214.71304 274.34471,218.3391 C275.35323,221.96515 276.36174,225.43197 277.37026,228.7318 C278.37877,232.03164 279.38728,235.16451 280.3958,238.12945 C281.40431,241.09439 282.41283,243.89141 283.42134,246.52582 C284.42986,249.16024 285.43837,251.63204 286.44688,253.95204 C287.4554,256.27204 288.46391,258.44023 289.47243,260.47192 C290.48094,262.50361 291.48946,264.39881 292.49797,266.17619 C293.50648,267.95357 294.515,269.61314 295.52351,271.17582 C296.53203,272.73849 297.54054,274.20427 298.54906,275.59515 C299.55757,276.98603 300.56608,278.302 301.5746,279.56508 C302.58311,280.82815 303.59163,282.03833 304.60014,283.2167 C305.60866,284.39506 306.61717,285.54161 307.62568,286.67574 C308.6342,287.80987 309.64271,288.93157 310.65123,290.05795 C311.65974,291.18433 312.66826,292.31538 313.67677,293.4655 C314.68528,294.61562 315.6938,295.78481 316.70231,296.98455 C317.71083,298.18428 318.71934,299.41455 319.72786,300.68381 C320.73637,301.95308 321.74488,303.26134 322.7534,304.61412 C323.76191,305.9669 324.77043,307.3642 325.77894,308.80875 C326.78745,310.25331 327.79597,311.74512 328.80448,313.28443 C329.813,314.82373 330.82151,316.41052 331.83003,318.04279 C332.83854,319.67507 333.84705,321.35283 334.85557,323.0722 C335.86408,324.79157 336.8726,326.55254 337.88111,328.34967 C338.88963,330.1468 339.89814,331.98008 340.90665,333.84286 C341.91517,335.70563 342.92368,337.59788 343.9322,339.51205 C345.94923,343.34039 347.96625,347.25639 349.98328,351.19371" id="B" class="data density"/>
	</g>
	<g id="X" class="layer">
		<path d="M 85.992312 395.82634 C89.315902,393.90794 92.639492,391.90278 95.963082,389.78291 C97.624877,388.72298 99.286672,387.63437 100.94847,386.51299 C102.61026,385.3916 104.27206,384.23745 105.93385,383.04623 C107.59565,381.85501 109.25744,380.62674 110.91924,379.35713 C112.58103,378.08751 114.24283,376.77657 115.90462,375.42033 C117.56642,374.06409 119.22821,372.66256 120.89001,371.21239 C122.5518,369.76221 124.2136,368.2634 125.87539,366.7135 C127.53719,365.1636 129.19898,363.56261 130.86078,361.90925 C132.52257,360.25589 134.18437,358.55017 135.84616,356.79217 C137.50796,355.03418 139.16975,353.22391 140.83155,351.36302 C142.49334,349.50213 144.15514,347.59062 145.81693,345.63173 C147.47873,343.67285 149.14053,341.6666 150.80232,339.61786 C152.46412,337.56913 154.12591,335.47792 155.78771,333.35066 C157.4495,331.2234 159.1113,329.06009 160.77309,326.86856 C162.43489,324.67704 164.09668,322.45729 165.75848,320.21832 C167.42027,317.97935 169.08207,315.72116 170.74386,313.45365 C172.40566,311.18613 174.06745,308.90928 175.72925,306.63358 C177.39104,304.35787 179.05284,302.08331 180.71463,299.82059 C182.37643,297.55787 184.03822,295.30699 185.70002,293.07855 C187.36181,290.8501 189.02361,288.64409 190.6854,286.47064 C192.3472,284.29719 194.00899,282.15631 195.67079,280.05734 C197.33258,277.95837 198.99438,275.90132 200.65617,273.89448 C202.31797,271.88763 203.97976,269.931 205.64156,268.03156 C207.30335,266.13213 208.96515,264.28988 210.62694,262.51032 C212.28874,260.73076 213.95053,259.01389 215.61233,257.36355 C217.27412,255.71321 218.93592,254.1294 220.59771,252.61426 C222.25951,251.09913 223.9213,249.65266 225.5831,248.27527 C227.24489,246.89787 228.90669,245.58954 230.56848,244.34897 C232.23028,243.1084 233.89207,241.9356 235.55387,240.82765 C237.21567,239.71969 238.87746,238.67659 240.53926,237.69398 C242.20105,236.71136 243.86285,235.78922 245.52464,234.92193 C247.18644,234.05465 248.84823,233.24221 250.51003,232.47798 C252.17182,231.71374 253.83362,230.99771 255.49541,230.32249 C257.15721,229.64727 258.819,229.01286 260.4808,228.41144 C262.14259,227.81002 263.80439,227.2416 265.46618,226.69824 C267.12798,226.15489 268.78977,225.6366 270.45157,225.13569 C272.11336,224.63477 273.77516,224.15123 275.43695,223.67793 C277.09875,223.20463 278.76054,222.74156 280.42234,222.28247 C282.08413,221.82338 283.74593,221.36826 285.40772,220.912 C287.06952,220.45574 288.73131,219.99834 290.39311,219.5361 C292.0549,219.07385 293.7167,218.60675 295.37849,218.13267 C297.04029,217.6586 298.70208,217.17755 300.36388,216.68912 C302.02567,216.20069 303.68747,215.70489 305.34926,215.2031 C307.01106,214.70131 308.67285,214.19352 310.33465,213.68293 C311.99644,213.17233 313.65824,212.65892 315.32003,212.14759 C316.98183,211.63625 318.64362,211.12699 320.30542,210.62626 C321.96721,210.12553 323.62901,209.63334 325.29081,209.1575 C326.9526,208.68166 328.6144,208.22217 330.27619,207.78796 C331.93799,207.35375 333.59978,206.94481 335.26158,206.57084 C336.92337,206.19687 338.58517,205.85788 340.24696,205.564 C341.90876,205.27012 343.57055,205.02135 345.23235,204.8279 C346.89414,204.63445 348.55594,204.49631 350.21773,204.42339 C351.87953,204.35048 353.54132,204.34277 355.20312,204.40953 C356.86491,204.47628 358.52671,204.61748 360.1885,204.84137 C361.8503,205.06526 363.51209,205.37184 365.17389,205.76806 C366.83568,206.16427 368.49748,206.65013 370.15927,207.23106 C371.82107,207.81198 373.48286,208.48798 375.14466,209.2628 C376.80645,210.03761 378.46825,210.91124 380.13004,211.88565 C381.79184,212.86006 383.45363,213.93525 385.11543,215.11138 C386.77722,216.2875 388.43902,217.56457 390.10081,218.94096 C391.76261,220.31736 393.4244,221.79308 395.0862,223.36487 C396.74799,224.93666 398.40979,226.60451 400.07158,228.36366 C401.73338,230.12281 403.39517,231.97326 405.05697,233.90891 C406.71876,235.84456 408.38056,237.86542 410.04235,239.9643 C411.70415,242.06317 413.36595,244.24005 415.02774,246.48685 C416.68954,248.73365 418.35133,251.05038 420.01313,253.42823 C421.67492,255.80609 423.33672,258.24508 424.99851,260.73591 C426.66031,263.22675 428.3221,265.76943 429.9839,268.35431 C431.64569,270.9392 433.30749,273.56628 434.96928,276.22572 C436.63108,278.88515 438.29287,281.57692 439.95467,284.29106 C441.61646,287.0052 443.27826,289.74171 444.94005,292.49056 C446.60185,295.23941 448.26364,298.0006 449.92544,300.76414 C451.58723,303.52768 453.24903,306.29357 454.91082,309.0519 C456.57262,311.81022 458.23441,314.56097 459.89621,317.29438 C461.558,320.02779 463.2198,322.74387 464.88159,325.43305 C466.54339,328.12223 468.20518,330.78453 469.86698,333.4107 C471.52877,336.03688 473.19057,338.62693 474.85236,341.17207 C476.51416,343.71722 478.17595,346.21745 479.83775,348.66456 C481.49954,351.11168 483.16134,353.50568 484.82313,355.8391 C486.48493,358.17252 488.14672,360.44537 489.80852,362.65109 C491.47031,364.85682 493.13211,366.99543 494.7939,369.06148 C496.4557,371.12753 498.11749,373.12102 499.77929,375.03775 C501.44109,376.95449 503.10288,378.79447 504.76468,380.5549 C506.42647,382.31532 508.08827,383.9962 509.75006,385.59621 C511.41186,387.19622 513.07365,388.71536 514.73545,390.15387 C516.39724,391.59238 518.05904,392.95025 519.72083,394.22924 C521.38263,395.50824 523.04442,396.70836 524.70622,397.83283 C526.36801,398.95731 528.02981,400.00614 529.6916,400.9839 C531.3534,401.96166 533.01519,402.86835 534.67699,403.70972 C536.33878,404.55108 538.00058,405.32712 539.66237,406.0445 C541.32417,406.76189 542.98596,407.42063 544.64776,408.02808 C546.30955,408.63553 547.97135,409.1917 549.63314,409.70432 C551.29494,410.21694 552.95673,410.68603 554.61853,411.11943 C556.28032,411.55283 557.94212,411.95055 559.60391,412.32025 C561.26571,412.68996 562.9275,413.03165 564.5893,413.35255 C566.25109,413.67345 567.91289,413.97354 569.57468,414.25946 C572.89827,414.83128 576.22186,415.34637 579.54545,415.84872" id="X" class="data density"/>
	</g>
	<g id="axis titles" class="layer">
		<text font-size="12" class="axis title" text-anchor="middle" x="606" y="426">Area</text>
	</g>
	<g id="legend" class="layer">
		<g id="A row">
			<line id="A" class="data legend" x1="550" x2="600" y1="19" y2="19"/>
			<text font-size="12" class="legend label" text-anchor="start" x="603" y="22">A</text>
		</g>
		<g id="B row">
			<line id="B" class="data legend" x1="550" x2="600" y1="34" y2="34"/>
			<text font-size="12" class="legend label" text-anchor="start" x="603" y="37">B</text>
		</g>
		<g id="X row">
			<line id="X" class="data legend" x1="550" x2="600" y1="49" y2="49"/>
			<text font-size="12" class="legend label" text-anchor="start" x="603" y="52">X</text>
		</g>
	</g>
</svg>
