<?xml version='1.0' encoding='UTF-8'?>
<!DOCTYPE svg PUBLIC "-//W3C//DTD SVG 1.0//EN" "http://www.w3.org/TR/2001/REC-SVG-20010904/DTD/svg10.dtd ">
<svg height="480" viewBox="0 0 640 480" width="640" xmlns="http://www.w3.org/2000/svg" >
	<defs>
		<title>cauloModel</title>
		<style type="text/css">
			<![CDATA[
				.data {
					fill: none;
					stroke: black;
					stroke-linecap: round;
					stroke-width: 1.5;
				}
				[id~="position--1"] {
					stroke: rgb(58,0,212);
				}
				[id~="position--2"] {
					stroke: rgb(0,0,0);
				}
				[id~="position-0"] {
					stroke: rgb(162,35,127);
				}
				[id~="position-1"] {
					stroke: rgb(255,83,0);
				}
				[id~="position-2"] {
					stroke: rgb(255,150,0);
				}
				line.axis {
					stroke: dimgrey;
					stroke-width: 0.75;
				}
				line.colorbar.tic {
					stroke: black;
					stroke-linecap: butt;
					stroke-width: 0.5;
				}
				line.scalebar {
					stroke: black;
					stroke-width: 0.75;
				}
				line.tic {
					stroke-linecap: round;
				}
				rect.colorbar {
					fill: none;
					stroke: black;
					stroke-width: 0.5;
				}
				rect.plot {
					fill: none;
					stroke: none;
				}
				text {
					font-family: Times;
				}
				text.axis {
					fill: dimgrey;
				}
				text.colorbar.label {
					fill: black;
				}
				text.label {
					font-weight: normal;
				}
				text.title {
					font-weight: bold;
				}
			]]>
		</style>
	</defs>
	<g id="Shape Mode 1" class="layer">
		<path d="M 186.14332 254.7005 C187.94376,254.4365 189.74693,254.05112 191.51371,253.66333 C193.28049,253.27555 195.0109,252.88537 196.80631,252.54263 C199.49943,252.02852 202.33882,251.62115 205.03027,250.99339 C206.82457,250.57488 208.55311,250.05841 210.17411,249.23555 C210.98462,248.82411 211.76824,248.33608 212.56424,247.8778 C214.95227,246.50295 217.45179,245.39586 219.80704,243.86165 C222.16229,242.32743 224.37327,240.36609 225.71188,237.99754 C227.05049,235.62898 227.51674,232.85321 227.9765,230.11794 C228.28301,228.29443 228.58663,226.48891 228.19308,224.35087 C227.99631,223.28185 227.62525,222.1297 227.13045,220.96496 C225.64608,217.47075 223.04817,213.86325 220.0801,211.6862 C218.1014,210.23484 215.95818,209.41923 213.83938,208.78556 C211.72058,208.1519 209.62621,207.70018 207.59757,207.37889 C204.55462,206.89695 201.65958,206.70847 198.82199,206.79911 C193.1468,206.98037 187.70141,208.27809 182.14176,208.66612 C180.28854,208.79546 178.42262,208.82372 176.61804,208.88328 C175.71575,208.91306 174.82879,208.95067 173.9237,209.011 C172.11351,209.13167 170.23078,209.34326 168.37083,209.22087 C167.44086,209.15968 166.51659,209.01499 165.60066,208.94373 C162.8529,208.72994 160.18031,209.17697 157.45023,209.25315 C155.63017,209.30394 153.78457,209.18992 151.9266,209.20893 C150.99762,209.21843 150.06554,209.2612 149.14065,209.28153 C145.44112,209.36287 141.85663,209.08535 138.01337,209.01275 C135.13093,208.9583 132.10292,209.01912 129.15287,208.97465 C127.18617,208.94501 125.25412,208.86856 122.98691,209.43927 C121.8533,209.72462 120.6359,210.17176 119.47354,210.67175 C118.31119,211.17175 117.20387,211.72459 116.14658,212.25872 C115.0893,212.79284 114.08204,213.30824 113.04302,213.95705 C112.00401,214.60587 110.93324,215.38811 110.02004,216.36111 C108.19366,218.30711 106.99758,221.01617 106.49778,223.38645 C106.24788,224.57159 106.17205,225.67204 106.18453,226.68593 C106.20949,228.71372 106.58768,230.3953 107.15994,232.13112 C107.44608,232.99903 107.78073,233.8805 108.13858,234.73285 C109.21215,237.28989 110.49452,239.58477 112.43747,241.43481 C114.38041,243.28485 116.98392,244.69005 119.52056,245.9525 C122.90275,247.63577 126.16607,249.06526 129.6131,250.13693 C131.33661,250.67277 133.10604,251.11915 134.94455,251.35359 C135.8638,251.47081 136.80032,251.53505 137.71351,251.65328 C140.45306,252.00797 142.98258,252.84862 145.5814,253.47642 C148.18023,254.10421 150.84836,254.51913 153.51784,254.95517 C156.18732,255.39121 158.85814,255.84837 161.59196,256.21257 C164.32578,256.57676 167.1226,256.84801 169.87672,256.68747 C172.63084,256.52694 175.34226,255.93463 178.04522,255.57702 C180.74818,255.21941 183.44267,255.0965 186.14332,254.7005 z" id="mode-1 position--2" class="data contour"/>
		<path d="M 193.13428 258.28958 C198.06606,257.48373 202.908,256.24121 207.80203,254.99843 C211.47254,254.06635 215.17235,253.13412 218.68983,251.82877 C222.20731,250.52342 225.54247,248.84494 228.83789,247.0098 C232.1333,245.17465 235.38899,243.18285 238.35873,240.84635 C241.32847,238.50986 244.01227,235.82868 246.03748,232.61973 C248.0627,229.41077 249.42932,225.67403 249.48617,221.9023 C249.54302,218.13056 248.2901,214.32382 245.7294,211.47677 C243.16869,208.62973 239.30022,206.74238 235.45152,205.85731 C230.31993,204.67721 225.2235,205.27895 220.25718,206.14648 C216.53244,206.79712 212.88089,207.59727 209.23019,208.48838 C201.92881,210.27062 194.63088,212.41673 187.21115,213.80308 C172.37169,216.57578 157.045,216.30942 142.26815,213.87655 C133.64833,212.45738 125.21561,210.30099 116.59687,208.26801 C112.90313,207.39674 109.17522,206.54813 105.27357,206.38503 C102.67248,206.2763 99.994163,206.47224 97.399729,207.06755 C96.102513,207.36521 94.826266,207.7627 93.637326,208.32903 C90.070507,210.02799 87.289448,213.24638 86.271175,216.84566 C85.252903,220.44494 85.997417,224.42511 87.41696,227.9762 C90.256045,235.07839 95.795247,240.46427 102.07534,244.59649 C109.40212,249.41743 117.73734,252.53201 126.16126,254.87157 C133.38176,256.8769 140.66742,258.31283 148.10324,259.3496 C155.53906,260.38637 163.12502,261.02398 170.65991,260.65941 C174.42735,260.47713 178.18202,260.0443 181.93405,259.64851 C185.68607,259.25272 189.43544,258.89396 193.13428,258.28958 z" id="mode-1 position--1" class="data contour"/>
		<path d="M 200.07709 261.74725 C220.60363,258.13271 240.74428,251.55167 256.83795,237.79552 C264.26579,231.44653 270.83156,223.56911 270.68691,213.88359 C270.63869,210.65508 269.84487,207.22567 267.89459,204.8055 C266.91945,203.59542 265.65519,202.63765 264.31026,201.90574 C260.27547,199.71001 255.51463,199.54704 250.88534,200.04798 C240.08368,201.21684 229.99825,206.00034 219.62415,210.13215 C210.73206,213.67369 201.62789,216.73644 192.28377,218.9627 C182.93965,221.18897 173.35559,222.57876 163.77838,222.49545 C154.20117,222.41214 144.63081,220.85573 135.37424,218.49957 C124.5749,215.75072 114.20266,211.91332 104.00983,207.50201 C95.273119,203.72088 86.668225,199.51811 77.408692,200.25656 C74.322181,200.50272 71.162933,201.29789 68.910963,203.34827 C67.784978,204.37346 66.885813,205.71245 66.275511,207.14307 C64.444603,211.43493 65.21346,216.55145 66.876943,221.14408 C70.20391,230.32934 77.109381,237.41903 84.822923,243.12487 C101.5356,255.48752 122.04171,261.35379 142.74367,263.71396 C161.85316,265.89258 181.12952,265.08375 200.07709,261.74725 z" id="mode-1 position-0" class="data contour"/>
		<path d="M 207.08962 265.54133 C220.48573,263.21466 233.61623,259.15155 246.01334,253.46076 C256.63944,248.58294 266.72672,242.50928 275.35186,234.85598 C279.66443,231.02934 283.61146,226.80779 286.85538,221.86003 C290.0993,216.91228 292.64011,211.23833 292.26933,205.44498 C292.02215,201.58274 290.48092,197.66744 287.69016,195.21707 C286.29479,193.99189 284.58703,193.13295 282.82287,192.59037 C277.53041,190.96266 271.73039,192.18233 266.28142,194.02029 C259.01612,196.47091 252.37487,200.02074 245.56902,203.66523 C240.46463,206.39859 235.26764,209.18521 229.9982,211.73707 C219.45933,216.8408 208.63066,221.00553 197.37495,224.1406 C186.11925,227.27567 174.43652,229.38108 162.82255,229.21174 C151.20858,229.0424 139.66336,226.59831 128.51174,223.10682 C115.50151,219.03341 103.027,213.53438 91.420587,206.73662 C81.472231,200.90996 72.161656,194.12913 60.974753,192.15398 C57.245786,191.49559 53.308338,191.37117 50.205224,193.22819 C48.653667,194.1567 47.310694,195.58056 46.351852,197.24794 C44.434167,200.5827 44.053006,204.89149 44.717007,208.81068 C45.049008,210.77027 45.642299,212.63246 46.337965,214.44339 C50.511967,225.30896 58.371507,234.32914 67.432763,241.66594 C78.004228,250.22553 90.211361,256.49384 103.10307,260.90605 C114.15311,264.68794 125.7061,267.10615 137.31478,268.22331 C148.92346,269.34047 160.58782,269.15656 172.25877,268.70535 C183.92971,268.25413 195.60724,267.53561 207.08962,265.54133 z" id="mode-1 position-1" class="data contour"/>
		<path d="M 214.07421 269.17853 C229.89698,266.38884 245.33433,261.44819 259.70148,254.3503 C265.85883,251.30835 271.81961,247.87017 277.60443,244.17927 C283.38926,240.48837 288.99812,236.54475 293.98421,231.97128 C298.97029,227.39782 303.33359,222.19451 307.17308,216.38953 C311.01256,210.58456 314.32824,204.17792 313.71361,197.301 C313.30386,192.71638 311.14731,187.92275 307.5906,185.39941 C305.81225,184.13774 303.68386,183.44364 301.46843,183.14961 C297.03758,182.56155 292.25858,183.57376 287.93496,185.22661 C285.77316,186.05304 283.7252,187.03963 281.70258,188.08568 C273.61211,192.26986 265.92713,197.4054 258.16114,202.45139 C252.33664,206.23588 246.46657,209.97001 240.42043,213.34145 C228.32815,220.08433 215.53158,225.37647 202.40083,229.33024 C195.83546,231.30712 189.18655,232.9494 182.41082,234.13772 C175.6351,235.32604 168.73256,236.06039 161.87673,235.96963 C148.16507,235.78812 134.64023,232.30619 121.61809,227.7024 C112.93666,224.63321 104.47865,221.06541 96.439487,216.66109 C90.410117,213.35785 84.616349,209.58406 78.850702,205.87071 C75.006937,203.39514 71.175671,200.94643 67.650939,198.15447 C65.888573,196.75849 64.202841,195.2767 62.409896,193.89301 C58.824005,191.12565 54.809264,188.75073 50.866153,186.65649 C48.894597,185.60937 46.940949,184.63241 44.792537,183.84804 C40.495713,182.27929 35.419832,181.48086 31.340543,183.24812 C29.300898,184.13175 27.510401,185.65681 26.275867,187.53002 C23.806798,191.27643 23.561577,196.41546 24.053684,201.03632 C24.299738,203.34675 24.730124,205.52765 25.457435,207.65026 C26.912059,211.8955 29.554387,215.90764 32.11858,219.78783 C33.400677,221.72792 34.663241,223.63503 36.02382,225.45039 C40.105556,230.89647 45.069434,235.51684 50.123065,240.1051 C53.492152,243.16394 56.901129,246.20851 60.715567,248.73758 C64.530005,251.26666 68.749903,253.28023 72.900671,255.34982 C79.126821,258.45421 85.197426,261.68464 91.575563,264.09744 C97.9537,266.51023 104.63937,268.1054 111.41198,269.50849 C118.18459,270.91158 125.04415,272.12261 131.91668,272.72999 C138.7892,273.33738 145.67471,273.34113 152.53251,273.25497 C159.39031,273.16881 166.2204,272.99273 173.05855,272.76444 C179.89669,272.53615 186.74289,272.25564 193.59197,271.71513 C200.44106,271.17462 207.29303,270.37412 214.07421,269.17853 z" id="mode-1 position-2" class="data contour"/>
		<text font-size="14" class="shapemode label" text-anchor="middle" x="168.9394" y="454.5">Shape Mode 1</text>
		<text font-size="12" class="shapemode label" text-anchor="middle" x="168.9394" y="467"> (91.5% of total variance)</text>
	</g>
	<g id="Shape Mode 2" class="layer">
		<path d="M 531.37671 262.84667 C537.77732,261.21016 543.95017,258.53017 549.89247,255.57557 C554.34919,253.35962 558.67623,250.98921 562.92771,248.42901 C565.76203,246.72221 568.56276,244.93106 571.03647,242.66097 C572.27332,241.52593 573.42842,240.27115 574.635,239.09959 C577.04816,236.75647 579.66724,234.74621 581.8535,232.2696 C582.94663,231.03129 583.93156,229.6764 584.94217,228.35017 C586.9634,225.6977 589.08737,223.15985 590.67362,220.25008 C591.46675,218.79519 592.12545,217.24732 592.75592,215.69722 C594.64734,211.04692 596.28468,206.37652 596.17103,201.43776 C596.09526,198.14526 595.24127,194.73349 593.4496,192.36013 C592.55377,191.17345 591.42352,190.24638 590.10295,189.65071 C588.78237,189.05504 587.27148,188.79078 585.73875,188.65598 C584.20602,188.52119 582.65145,188.51586 581.15526,188.7133 C579.65908,188.91074 578.22128,189.31095 576.80304,189.81066 C571.13006,191.80951 565.76989,195.40043 560.41841,199.05602 C556.40481,201.79772 552.3961,204.57579 548.23931,207.11842 C544.08252,209.66105 539.77764,211.96823 535.52463,214.58971 C534.10695,215.46354 532.69504,216.37228 531.21121,217.10135 C529.72738,217.83042 528.17162,218.3798 526.62297,218.9676 C525.07433,219.5554 523.53278,220.18161 521.98942,220.77334 C517.35935,222.5485 512.71296,224.01326 507.92557,225.00234 C503.13818,225.99143 498.20978,226.50484 493.34713,226.4743 C491.72624,226.46412 490.11266,226.39351 488.48994,226.34314 C486.86723,226.29278 485.23537,226.26268 483.62009,226.12394 C482.00482,225.98519 480.40612,225.73781 478.82989,225.36519 C474.10122,224.24731 469.57478,222.00219 465.00267,220.19707 C463.47864,219.59537 461.94953,219.04255 460.51958,218.29052 C459.08962,217.53849 457.75882,216.58724 456.38258,215.72722 C453.63009,214.00719 450.69583,212.65207 447.85385,211.05343 C445.01188,209.45479 442.26218,207.61263 439.82708,205.39553 C438.60953,204.28699 437.47063,203.0847 436.23703,201.99301 C433.76984,199.80962 430.92387,198.06859 428.38157,196.31713 C427.11042,195.4414 425.91519,194.56307 424.68981,193.67995 C421.01365,191.03057 417.0661,188.33808 412.55141,187.76476 C409.54162,187.38254 406.27977,187.94218 404.05871,190.20769 C402.94818,191.34045 402.09785,192.89968 401.61469,194.50266 C400.64839,197.70864 401.1508,201.08964 401.53135,204.36256 C401.72162,205.99902 401.88142,207.60845 402.20503,209.18905 C403.17586,213.93085 405.62095,218.41312 408.23109,222.63633 C410.84124,226.85954 413.61644,230.82368 416.78674,234.64354 C418.90028,237.19011 421.18942,239.67256 423.72683,241.81055 C426.26425,243.94853 429.04995,245.74206 431.82722,247.51982 C435.99312,250.18644 440.14005,252.81757 444.47338,255.09537 C453.14002,259.65096 462.55223,262.79322 472.3318,264.98263 C477.22158,266.07734 482.20321,266.93384 487.14557,267.471 C490.44048,267.82911 493.71793,268.04529 497.02081,268.13293 C498.67224,268.17675 500.33003,268.18843 501.99464,268.13502 C506.98847,267.97476 512.04364,267.2286 516.9216,266.19704 C520.17358,265.50933 523.3468,264.69479 526.55705,263.96473 C528.16218,263.5997 529.77656,263.25579 531.37671,262.84667" id="mode-2 position--2" class="data contour"/>
		<path d="M 530.85592 260.29468 C537.17718,258.82271 543.36938,256.81752 549.43924,254.4732 C553.99164,252.71496 558.47521,250.76595 562.75416,248.46522 C567.03311,246.16449 571.10743,243.51204 575.02344,240.60755 C578.93946,237.70306 582.69717,234.54654 586.05941,231.05591 C589.42164,227.56527 592.3884,223.74052 594.71852,219.42365 C597.04864,215.10679 598.74212,210.29781 598.60395,205.44629 C598.51183,202.21194 597.60565,198.95867 595.7351,196.61501 C594.79982,195.44317 593.62345,194.49874 592.30697,193.80228 C589.67401,192.40935 586.4806,192.00831 583.42715,192.17323 C581.90043,192.25569 580.4087,192.47964 578.93347,192.80376 C573.03253,194.10025 567.39558,196.99942 561.76736,199.93067 C557.5462,202.1291 553.32994,204.34558 549.03627,206.512 C540.44892,210.84484 531.55189,214.97748 522.27433,217.86263 C512.99678,220.74778 503.33869,222.38545 493.6721,222.44114 C488.83881,222.46898 484.00339,222.10132 479.25103,221.21937 C474.49868,220.33742 469.82939,218.94117 465.30898,217.2928 C462.29537,216.19389 459.34794,214.98292 456.39764,213.77654 C453.44735,212.57017 450.4942,211.36837 447.62698,209.93319 C443.32614,207.7804 439.21863,205.10248 435.15115,202.66185 C431.08368,200.22122 427.05624,198.01788 422.93535,195.9298 C418.81445,193.84171 414.6001,191.86887 410.04853,191.86231 C407.01415,191.85793 403.8299,192.72746 401.65351,194.8281 C400.56531,195.87842 399.72908,197.23652 399.16076,198.7019 C397.45578,203.09801 398.16196,208.45955 399.67267,213.19055 C401.18338,217.92155 403.49862,222.02202 406.3072,225.90525 C409.11579,229.78848 412.41772,233.45448 415.9147,236.82175 C418.24602,239.0666 420.66402,241.17868 423.29844,243.04663 C425.93287,244.91459 428.7837,246.53842 431.63928,248.08769 C435.92263,250.4116 440.21663,252.56774 444.65587,254.42457 C453.53435,258.13822 462.99378,260.65458 472.63173,262.30884 C482.26968,263.96311 492.08615,264.75527 501.85615,264.30445 C506.74115,264.07904 511.61453,263.54289 516.45798,262.8728 C521.30144,262.2027 526.11498,261.39866 530.85592,260.29468" id="mode-2 position--1" class="data contour"/>
		<path d="M 530.2895 257.61033 C550.81604,253.99579 570.95669,247.41474 587.05036,233.65859 C594.4782,227.3096 601.04397,219.43218 600.89932,209.74666 C600.8511,206.51815 600.05728,203.08875 598.107,200.66858 C597.13186,199.4585 595.8676,198.50073 594.52267,197.76882 C590.48788,195.57309 585.72704,195.41011 581.09775,195.91105 C570.29609,197.07992 560.21067,201.86342 549.83656,205.99522 C540.94447,209.53677 531.8403,212.59951 522.49618,214.82578 C513.15206,217.05205 503.568,218.44183 493.99079,218.35853 C484.41358,218.27522 474.84323,216.71881 465.58665,214.36265 C454.78731,211.6138 444.41507,207.7764 434.22224,203.36509 C425.48553,199.58396 416.88064,195.38118 407.6211,196.11964 C404.53459,196.36579 401.37534,197.16097 399.12337,199.21135 C397.99739,200.23654 397.09822,201.57553 396.48792,203.00615 C394.65701,207.29801 395.42587,212.41453 397.08935,217.00716 C400.41632,226.19242 407.32179,233.2821 415.03533,238.98794 C431.74801,251.35059 452.25412,257.21686 472.95608,259.57703 C492.06557,261.75565 511.34194,260.94683 530.2895,257.61033 z" id="mode-2 position-0" class="data contour"/>
		<path d="M 529.77637 255.19191 C540.77387,254.03112 551.74356,251.90537 562.33905,248.4976 C571.42091,245.57665 580.22785,241.7138 588.08169,236.36944 C592.00861,233.69727 595.69726,230.65471 598.61644,226.79727 C601.53562,222.93983 603.68533,218.26752 603.53101,213.60155 C603.42812,210.4909 602.30122,207.38307 600.29902,204.98438 C599.29791,203.78504 598.07798,202.76297 596.75978,201.94387 C592.80516,199.48656 587.96603,198.85588 583.2031,198.8614 C572.08959,198.87428 561.39087,202.35092 550.62229,205.39907 C541.39207,208.01178 532.11052,210.30967 522.72122,211.88234 C513.33192,213.455 503.83487,214.30244 494.31721,214.18785 C484.79955,214.07326 475.26129,212.99664 465.87197,211.3883 C454.91776,209.5119 444.16628,206.91178 433.30575,203.90914 C423.99672,201.33544 414.60757,198.46601 405.19205,200.13401 C402.05354,200.69001 398.91211,201.75017 396.61182,203.69583 C395.46168,204.66866 394.52182,205.86287 393.86381,207.21566 C392.5478,209.92124 392.3592,213.26117 393.00589,216.42213 C393.32923,218.00261 393.86141,219.53835 394.4964,221.00761 C398.30635,229.82317 405.81789,236.24558 414.03985,241.1563 C423.63214,246.88547 434.19142,250.55704 445.02282,253.06668 C454.30689,255.21781 463.79089,256.51527 473.22978,256.98837 C482.66866,257.46146 492.06244,257.11019 501.48276,256.79154 C510.90308,256.4729 520.34994,256.18688 529.77637,255.19191 z" id="mode-2 position-1" class="data contour"/>
		<path d="M 529.24401 252.65487 C535.52648,252.36762 541.80024,251.87302 548.08837,251.04679 C552.80447,250.42711 557.52864,249.6209 562.17169,248.5584 C566.81474,247.4959 571.37667,246.17711 575.90707,244.64131 C580.43747,243.10551 584.93635,241.35269 589.17074,239.08881 C593.40513,236.82492 597.37503,234.04997 600.53146,230.43383 C603.68789,226.81769 606.03085,222.36036 605.98856,217.72043 C605.96036,214.62715 604.87205,211.45271 602.72841,209.10743 C601.65659,207.93479 600.32093,206.96944 598.93656,206.12915 C594.78344,203.60828 590.19183,202.21294 585.39238,201.69182 C578.99312,200.99699 572.22437,201.85634 565.74546,202.58676 C560.88629,203.13458 556.19014,203.60988 551.4565,204.64206 C548.30074,205.33018 545.12831,206.2658 541.92241,206.68802 C540.31945,206.89912 538.70814,206.98187 537.1073,207.12206 C533.90562,207.40243 530.74587,207.91252 527.63214,208.32017 C526.07528,208.52399 524.52993,208.7022 522.97344,208.86282 C518.30397,209.34471 513.53428,209.66836 508.78964,209.94063 C504.045,210.21289 499.32541,210.43376 494.61325,210.23399 C489.90109,210.03423 485.19636,209.41383 480.46316,209.10396 C475.72996,208.79409 470.96829,208.79476 466.18427,208.53513 C459.80556,208.18896 453.38711,207.38005 446.96334,206.4201 C442.14552,205.70013 437.32471,204.89521 432.37499,204.36647 C430.72509,204.19022 429.06086,204.04466 427.43629,203.81915 C425.81172,203.59363 424.22681,203.28817 422.5931,203.07929 C420.9594,202.8704 419.27689,202.75811 417.5832,202.71493 C412.50213,202.58542 407.32044,203.07804 402.64441,204.26995 C399.52706,205.06456 396.63445,206.16996 394.23068,208.08654 C393.0288,209.04483 391.94913,210.20591 391.1986,211.51317 C388.94699,215.43496 389.6576,220.67237 391.83851,224.95589 C393.29245,227.81157 395.39986,230.2433 397.4374,232.62217 C398.45617,233.81161 399.45748,234.98783 400.63052,236.01331 C402.97659,238.06426 406.00958,239.51223 408.90364,240.99237 C410.35066,241.73244 411.76296,242.48054 413.19403,243.18447 C418.91832,246.00019 424.94309,248.10905 431.111,249.71992 C435.73693,250.92807 440.44338,251.85611 445.20137,252.4612 C449.95936,253.0663 454.7689,253.34844 459.48423,253.69626 C464.19957,254.04408 468.8207,254.45758 473.47984,254.47659 C478.13897,254.49561 482.8361,254.12014 487.43689,253.69932 C488.97048,253.55904 490.49337,253.41373 492.04151,253.35627 C493.58964,253.29881 495.16302,253.32921 496.71974,253.27935 C498.27646,253.22949 499.81652,253.09938 501.35235,253.01461 C505.95983,252.76031 510.52924,252.9141 515.17232,252.9416 C519.81541,252.9691 524.53216,252.8703 529.24401,252.65487 z" id="mode-2 position-2" class="data contour"/>
		<text font-size="14" class="shapemode label" text-anchor="middle" x="497.89592" y="454.5">Shape Mode 2</text>
		<text font-size="12" class="shapemode label" text-anchor="middle" x="497.89592" y="467"> (4.5% of total variance)</text>
	</g>
	<g id="scale bar" class="layer">
		<g id="scalebar lines">
			<line id="scalebar" class="scalebar" x1="30" x2="89.06121" y1="480" y2="480"/>
			<line id="scalebar left tic" class="scalebar tic" x1="30" x2="30" y1="478.5" y2="481.5"/>
			<line id="scalebar right tic" class="scalebar tic" x1="89.06121" x2="89.06121" y1="478.5" y2="481.5"/>
		</g>
		<text font-size="12" class="scalebar label" text-anchor="middle" x="59.530605" y="493.5">10 pixels</text>
	</g>
	<g id="legend" class="layer">
		<g id="-2 s.d. row">
			<line id="position--2" class="data legend" x1="550" x2="600" y1="19" y2="19"/>
			<text font-size="12" class="legend label" text-anchor="start" x="603" y="22">-2 s.d.</text>
		</g>
		<g id="-1 s.d. row">
			<line id="position--1" class="data legend" x1="550" x2="600" y1="34" y2="34"/>
			<text font-size="12" class="legend label" text-anchor="start" x="603" y="37">-1 s.d.</text>
		</g>
		<g id="mean row">
			<line id="position-0" class="data legend" x1="550" x2="600" y1="49" y2="49"/>
			<text font-size="12" class="legend label" text-anchor="start" x="603" y="52">mean</text>
		</g>
		<g id="1 s.d. row">
			<line id="position-1" class="data legend" x1="550" x2="600" y1="64" y2="64"/>
			<text font-size="12" class="legend label" text-anchor="start" x="603" y="67">1 s.d.</text>
		</g>
		<g id="2 s.d. row">
			<line id="position-2" class="data legend" x1="550" x2="600" y1="79" y2="79"/>
			<text font-size="12" class="legend label" text-anchor="start" x="603" y="82">2 s.d.</text>
		</g>
	</g>
	<g id="title" class="layer">
		<text font-size="14" class="plot title" text-anchor="middle" x="320" y="14">cauloModel</text>
	</g>
</svg>
