<?xml version='1.0' encoding='UTF-8'?>
<!DOCTYPE svg PUBLIC "-//W3C//DTD SVG 1.0//EN" "http://www.w3.org/TR/2001/REC-SVG-20010904/DTD/svg10.dtd ">
<svg height="480" viewBox="0 0 640 480" width="640" xmlns="http://www.w3.org/2000/svg" >
	<defs>
		<title>kModel</title>
		<style type="text/css">
			<![CDATA[
				.data {
					fill: none;
					stroke: black;
					stroke-linecap: round;
					stroke-width: 1.5;
				}
				[id~="position--1"] {
					stroke: rgb(58,0,212);
				}
				[id~="position--2"] {
					stroke: rgb(0,0,0);
				}
				[id~="position-0"] {
					stroke: rgb(162,35,127);
				}
				[id~="position-1"] {
					stroke: rgb(255,83,0);
				}
				[id~="position-2"] {
					stroke: rgb(255,150,0);
				}
				line.axis {
					stroke: dimgrey;
					stroke-width: 0.75;
				}
				line.colorbar.tic {
					stroke: black;
					stroke-linecap: butt;
					stroke-width: 0.5;
				}
				line.scalebar {
					stroke: black;
					stroke-width: 0.75;
				}
				line.tic {
					stroke-linecap: round;
				}
				rect.colorbar {
					fill: none;
					stroke: black;
					stroke-width: 0.5;
				}
				rect.plot {
					fill: none;
					stroke: none;
				}
				text {
					font-family: Times;
				}
				text.axis {
					fill: dimgrey;
				}
				text.colorbar.label {
					fill: black;
				}
				text.label {
					font-weight: normal;
				}
				text.title {
					font-weight: bold;
				}
			]]>
		</style>
	</defs>
	<g id="Shape Mode 1" class="layer">
		<path d="M 111.96257 262.97635 C114.61861,262.48958 117.18018,261.63342 119.79035,260.90764 C122.40052,260.18185 125.0593,259.58645 127.61371,259.22709 C130.16812,258.86772 132.61815,258.74439 135.11961,258.62289 C136.37034,258.56213 137.63392,258.50184 138.92418,258.57376 C140.21444,258.64568 141.53137,258.84982 142.69629,259.1422 C143.86121,259.43458 144.87412,259.8152 145.9385,260.20805 C147.00288,260.6009 148.11874,261.00598 149.17923,261.41232 C151.30021,262.225 153.19972,263.04276 155.39425,263.48773 C156.49151,263.71022 157.66253,263.83951 158.75176,263.84828 C159.84099,263.85705 160.84843,263.7453 161.89212,263.67195 C162.93581,263.5986 164.01576,263.56365 165.05906,263.34308 C166.10237,263.12251 167.10903,262.71632 168.21122,262.35146 C169.31342,261.9866 170.51114,261.66307 171.509,261.10958 C172.50686,260.55608 173.30485,259.77263 174.08055,259.00622 C174.85624,258.23981 175.60965,257.49046 176.29339,256.65088 C177.66088,254.97172 178.74973,252.93164 179.52016,250.63442 C179.90538,249.48581 180.21099,248.27291 180.48364,247.05708 C181.3016,243.40958 181.82291,239.73567 181.49206,236.0462 C181.2715,233.58655 180.6722,231.11998 179.95512,228.59158 C179.23804,226.06319 178.40318,223.47297 177.19708,221.08559 C176.59403,219.8919 175.89817,218.74891 175.20053,217.63197 C174.50289,216.51503 173.80348,215.42412 172.96111,214.41046 C172.11873,213.3968 171.1334,212.46038 170.22105,211.49121 C169.30871,210.52204 168.46935,209.52012 167.51009,208.56747 C166.55083,207.61483 165.47166,206.71147 164.39497,205.84878 C163.31827,204.9861 162.24405,204.16409 161.13701,203.39031 C157.81589,201.06896 154.19945,199.18162 150.2701,197.90046 C146.34075,196.61931 142.09849,195.94435 137.89264,195.14428 C133.6868,194.34422 129.51738,193.41905 125.36483,192.95755 C122.59646,192.64988 119.83559,192.54829 117.0662,192.36952 C115.6815,192.28013 114.29467,192.17144 112.91498,192.07214 C110.15561,191.87353 107.42482,191.71244 104.6045,191.73808 C103.19434,191.75089 101.76179,191.81039 100.34677,191.91727 C97.516723,192.13104 94.756768,192.53436 91.974085,192.91929 C89.191402,193.30421 86.385991,193.67075 83.627311,194.22926 C79.489291,195.06703 75.456416,196.33675 71.445713,197.5443 C67.435011,198.75185 63.446482,199.89723 59.524414,201.32564 C55.602346,202.75405 51.746739,204.46549 48.217845,206.60851 C44.688952,208.75152 41.486772,211.32611 38.363174,214.01923 C35.239576,216.71236 32.194558,219.52403 29.744754,222.7902 C27.29495,226.05638 25.44036,229.77705 24.570357,233.72055 C23.700353,237.66406 23.814938,241.8304 24.847147,245.64117 C25.535287,248.18169 26.631259,250.56418 28.047472,252.79144 C29.463685,255.01871 31.200137,257.09075 33.206885,258.61766 C35.213633,260.14456 37.490677,261.12633 39.642639,262.08846 C40.71862,262.56953 41.76333,263.04569 42.909244,263.29249 C45.201073,263.7861 47.897715,263.36229 50.306067,263.26321 C51.510243,263.21367 52.642347,263.24531 53.821097,263.09092 C56.178596,262.78214 58.722682,261.72922 61.2023,260.99233 C62.442109,260.62388 63.665801,260.33445 64.908714,260.14614 C68.637452,259.5812 72.539175,259.92636 76.478666,260.53059 C79.104993,260.93342 81.748106,261.45138 84.347555,262.06944 C85.647279,262.37848 86.936088,262.71253 88.214741,263.02763 C90.772046,263.65784 93.288728,264.21222 95.910778,264.28147 C97.221803,264.3161 98.55917,264.22945 99.896226,264.13974 C102.57034,263.96032 105.2432,263.76867 107.93634,263.50341 C109.28291,263.37078 110.63455,263.21974 111.96257,262.97635 z" id="mode-1 position--2" class="data contour"/>
		<path d="M 111.19368 262.24149 C113.47178,261.80122 115.70321,261.05096 117.92704,260.41995 C120.15086,259.78894 122.36708,259.27717 124.53968,258.82629 C127.79858,258.14996 130.95935,257.6106 134.10277,257.5783 C136.19839,257.55677 138.28631,257.76059 140.13436,258.15794 C141.05838,258.35662 141.92244,258.60367 142.80315,258.83536 C145.4453,259.53045 148.23738,260.08731 150.92794,260.07765 C153.61849,260.068 156.20752,259.49183 158.87738,258.46362 C159.76734,258.12089 160.66627,257.72793 161.46564,257.19504 C162.265,256.66216 162.9648,255.98936 163.62715,255.30306 C164.28951,254.61676 164.91441,253.91695 165.48492,253.14142 C167.19643,250.81485 168.4183,247.80682 169.14754,244.70032 C169.87679,241.59382 170.11341,238.38884 169.85824,235.11934 C169.51802,230.76001 168.30353,226.28596 166.35896,222.11229 C165.38667,220.02545 164.23187,218.0137 162.84633,216.21782 C162.15357,215.31988 161.40312,214.4759 160.62723,213.63238 C158.29956,211.1018 155.74292,208.57525 152.9245,206.48619 C150.10609,204.39713 147.0259,202.74555 143.72802,201.49782 C140.43014,200.25009 136.91456,199.40621 133.37329,198.58479 C129.83202,197.76337 126.26505,196.9644 122.69681,196.46866 C119.12857,195.97291 115.55906,195.78038 111.94993,195.59543 C108.34081,195.41049 104.69207,195.23312 101.0593,195.47662 C98.637464,195.63896 96.222726,195.98835 93.804913,196.33583 C91.387101,196.68331 88.966214,197.02887 86.594595,197.52015 C83.037166,198.25706 79.590592,199.32184 76.143123,200.42804 C69.248187,202.64043 62.349676,205.01853 56.349188,208.87291 C53.348944,210.80009 50.573206,213.09635 47.938626,215.50893 C45.304046,217.92152 42.810624,220.45044 40.840047,223.36649 C38.86947,226.28254 37.421739,229.58573 36.75465,233.02023 C36.087562,236.45473 36.201115,240.02054 37.062875,243.38399 C38.211887,247.86858 40.691043,251.99342 44.03054,254.85303 C45.700289,256.28283 47.585122,257.39633 49.424457,258.32702 C50.344124,258.79236 51.252416,259.212 52.218201,259.49588 C54.149772,260.06363 56.311313,260.08832 58.376343,260.17414 C59.408858,260.21705 60.417245,260.27525 61.43507,260.22875 C64.488543,260.08928 67.626954,259.00766 70.847379,258.71672 C74.067803,258.42577 77.370241,258.92551 80.706996,259.59367 C84.043752,260.26183 87.414825,261.0984 90.728024,261.90316 C92.936824,262.43968 95.119902,262.96206 97.375937,263.10024 C98.503955,263.16933 99.650212,263.14238 100.80269,263.10783 C103.10766,263.03873 105.43753,262.93927 107.74845,262.71593 C108.9039,262.60426 110.05462,262.46162 111.19368,262.24149 z" id="mode-1 position--1" class="data contour"/>
		<path d="M 110.43785 261.44543 C114.25844,260.70563 117.90869,259.40757 121.47979,258.34321 C124.15813,257.54494 126.79194,256.87812 129.30932,256.52439 C131.82669,256.17065 134.22762,256.13001 136.50959,256.21338 C138.79157,256.29675 140.95459,256.50414 143.12608,256.32175 C145.29758,256.13935 147.47756,255.56719 149.49831,254.53247 C150.17189,254.18757 150.82778,253.79127 151.43498,253.30528 C152.04217,252.81929 152.60067,252.24361 153.14498,251.61292 C153.68929,250.98222 154.2194,250.29652 154.70017,249.57851 C157.58476,245.27042 158.69271,239.79915 158.30048,234.17243 C158.03899,230.42129 157.11076,226.60106 155.55603,223.08649 C154.38998,220.45057 152.87153,217.98657 150.99105,215.77123 C149.73739,214.29434 148.32284,212.92797 146.88739,211.56725 C146.16966,210.88689 145.44671,210.20795 144.69122,209.58343 C142.42474,207.70988 139.86541,206.3262 137.18918,205.11423 C131.83673,202.69029 126.01671,200.95325 120.03835,199.98929 C117.04917,199.50731 114.0204,199.21861 110.9637,199.07077 C107.90699,198.92294 104.82234,198.91599 101.75091,199.09922 C94.584246,199.52678 87.489541,200.98984 80.786786,203.31285 C77.914177,204.30843 75.113558,205.46195 72.363226,206.74142 C69.612894,208.02089 66.912848,209.42629 64.427643,211.13835 C61.942438,212.85041 59.672075,214.86912 57.542471,217.001 C55.412867,219.13288 53.424023,221.37794 51.923139,223.93719 C48.921373,229.05568 47.871453,235.43092 49.267798,241.14975 C50.198695,244.9623 52.216821,248.48312 54.851972,251.16485 C56.828335,253.17614 59.151776,254.71545 61.543188,255.69754 C63.137464,256.35226 64.761949,256.75934 66.446901,257.07402 C67.289377,257.23136 68.146969,257.3656 69.00303,257.43208 C71.571212,257.6315 74.125606,257.22099 76.78169,257.29731 C79.437774,257.37363 82.195547,257.93678 84.946867,258.63432 C87.698188,259.33185 90.443056,260.16378 93.225814,260.82745 C96.008572,261.49113 98.82922,261.98654 101.72018,262.11383 C104.61114,262.24112 107.5724,262.00029 110.43785,261.44543 z" id="mode-1 position-0" class="data contour"/>
		<path d="M 109.66591 260.72205 C112.71863,260.03491 115.70265,259.12074 118.4582,257.92856 C119.83598,257.33247 121.15664,256.66687 122.4924,256.16743 C123.16028,255.91771 123.83194,255.70952 124.49101,255.48667 C125.80915,255.04098 127.07691,254.53661 128.31822,254.15449 C128.93887,253.96343 129.55291,253.80293 130.1607,253.64269 C131.37628,253.32222 132.56685,253.0028 133.70432,252.83725 C134.27306,252.75448 134.82852,252.71017 135.37664,252.60266 C136.47288,252.38764 137.53976,251.91982 138.58725,251.4464 C139.111,251.20969 139.62991,250.97158 140.1146,250.6467 C141.56866,249.67204 142.71481,247.91639 143.81263,246.03599 C144.91045,244.15559 145.95994,242.15044 146.42842,240.00411 C146.89691,237.85778 146.78438,235.57026 146.65078,233.23618 C146.56171,231.68013 146.46327,230.10338 146.15082,228.56566 C145.83838,227.02794 145.31192,225.52926 144.73731,224.05867 C144.16269,222.58807 143.53992,221.14556 142.68924,219.86114 C142.2639,219.21893 141.78159,218.61624 141.28929,218.0052 C139.81241,216.17208 138.24575,214.26384 136.46414,212.69472 C134.68253,211.1256 132.68597,209.89562 130.65265,208.67673 C129.29711,207.86413 127.92523,207.05647 126.49962,206.41147 C125.78682,206.08897 125.06058,205.80714 124.32229,205.52981 C122.10742,204.69782 119.78406,203.90641 117.379,203.41421 C114.97394,202.92201 112.48718,202.72903 109.9797,202.62243 C107.47223,202.51582 104.94405,202.4956 102.4401,202.6466 C99.101505,202.84793 95.805993,203.35368 92.577927,204.08586 C90.156878,204.63499 87.773767,205.31149 85.464169,206.20942 C83.154571,207.10735 80.918486,208.2267 78.764529,209.4345 C76.610572,210.64229 74.538743,211.93853 72.566959,213.42722 C68.623391,216.40459 65.08,220.15174 63.043467,224.55584 C62.0252,226.75788 61.383648,229.12417 61.117713,231.57209 C60.851777,234.02001 60.961459,236.54958 61.492899,238.93235 C62.201485,242.10939 63.659862,245.02548 65.665079,247.4555 C67.168991,249.27802 68.9805,250.82713 70.80284,251.99137 C72.017733,252.76754 73.23744,253.37265 74.556912,253.90357 C75.216648,254.16903 75.901325,254.41595 76.581356,254.62106 C78.621449,255.23638 80.619727,255.47549 82.720467,255.87653 C84.12096,256.14388 85.566991,256.48321 87.010697,256.95608 C87.73255,257.19251 88.453822,257.46232 89.17501,257.71894 C91.338576,258.48881 93.501396,259.13994 95.737954,259.70864 C97.974511,260.27733 100.28481,260.76359 102.64152,261.04174 C104.21265,261.22718 105.80442,261.32014 107.35831,261.141 C108.13525,261.05142 108.90273,260.89383 109.66591,260.72205" id="mode-1 position-1" class="data contour"/>
		<path d="M 108.92821 260.00975 C110.06799,259.71033 111.17721,259.37292 112.27066,259.00203 C113.36412,258.63114 114.44181,258.22677 115.43242,257.54386 C116.42302,256.86095 117.32655,255.89949 118.26192,255.30771 C118.72961,255.01181 119.20527,254.80834 119.67085,254.49976 C120.60202,253.8826 121.49291,252.84504 122.41915,252.09879 C122.88227,251.72566 123.35422,251.42537 123.82305,251.09023 C124.76071,250.41994 125.68587,249.61028 126.46923,249.24036 C126.86091,249.0554 127.21714,248.98037 127.58806,248.87048 C127.95898,248.76059 128.34459,248.61583 128.70442,248.33612 C129.06425,248.0564 129.3983,247.64173 129.75267,247.39294 C130.10705,247.14416 130.48176,247.06126 130.75997,246.77388 C131.03818,246.48649 131.21991,245.99463 131.45565,245.54152 C131.6914,245.0884 131.98116,244.67404 132.23945,244.16593 C132.49773,243.65782 132.72453,243.05595 132.97757,242.48336 C133.7367,240.76561 134.73199,239.31141 135.07655,237.66339 C135.4211,236.01536 135.11493,234.17351 135.03875,232.29454 C134.98796,231.04188 135.0394,229.77273 134.8761,228.56134 C134.71281,227.34994 134.33478,226.19632 133.92886,225.04586 C133.52294,223.89541 133.08914,222.74814 132.61022,221.67358 C132.37076,221.1363 132.12002,220.6172 131.74459,220.13135 C131.36915,219.6455 130.86903,219.19289 130.45884,218.71562 C130.04865,218.23835 129.72839,217.73641 129.38659,217.24205 C129.04478,216.74769 128.68143,216.2609 128.27743,215.80058 C127.46943,214.87996 126.49884,214.06523 125.51645,213.40062 C125.02526,213.06831 124.53111,212.77353 124.0727,212.36042 C123.61429,211.94731 123.19162,211.41586 122.73895,210.98944 C122.28627,210.56302 121.80361,210.24162 121.30805,209.9172 C120.81249,209.59278 120.30405,209.26533 119.7864,208.97237 C118.7511,208.38643 117.67898,207.93839 116.51173,207.51536 C115.92811,207.30384 115.32071,207.09857 114.70885,206.91597 C113.48512,206.55077 112.24356,206.27626 110.95471,206.19202 C110.31028,206.1499 109.65404,206.15535 108.99782,206.15634 C107.02916,206.15932 105.06072,206.12224 103.12777,206.21523 C100.55049,206.33922 98.036303,206.69445 95.564636,207.3488 C94.328802,207.67598 93.103599,208.07794 91.894406,208.45082 C91.289809,208.63726 90.689214,208.81643 90.110039,209.05732 C88.372516,209.78001 86.827777,211.05824 85.224122,212.18896 C84.155019,212.94277 83.05973,213.63103 82.071953,214.42017 C81.578064,214.81473 81.111052,215.23452 80.64608,215.66853 C77.856243,218.27257 75.139787,221.38857 74.096116,225.11001 C73.748226,226.35048 73.586202,227.65823 73.453443,228.94711 C73.387063,229.59154 73.328,230.23126 73.29767,230.87348 C73.20668,232.80015 73.374285,234.74935 73.7281,236.6771 C73.963977,237.96226 74.282614,239.23789 74.745296,240.40245 C75.207978,241.56701 75.814705,242.62051 76.500576,243.71104 C77.529382,245.34684 78.736263,247.06595 80.063013,248.2823 C80.505263,248.68776 80.960832,249.03735 81.36864,249.47857 C81.776449,249.9198 82.136496,250.45265 82.607615,250.83785 C83.078734,251.22305 83.660924,251.46058 84.190743,251.75966 C85.250381,252.35782 86.100537,253.20218 87.103981,253.73773 C87.605703,254.0055 88.145746,254.19607 88.674739,254.41396 C89.732723,254.84975 90.746501,255.39483 91.811169,255.96192 C92.343503,256.24547 92.88856,256.53453 93.420672,256.79729 C95.017009,257.58558 96.496847,258.13725 98.222887,258.60596 C99.37358,258.91844 100.6337,259.19404 101.79948,259.5149 C102.38237,259.67533 102.94168,259.84708 103.52834,259.99404 C104.70166,260.28796 105.98437,260.48273 107.18198,260.3607 C107.78079,260.29968 108.35832,260.15947 108.92821,260.00975 z" id="mode-1 position-2" class="data contour"/>
		<text font-size="14" class="shapemode label" text-anchor="middle" x="102.80116" y="454.5">Shape Mode 1</text>
		<text font-size="12" class="shapemode label" text-anchor="middle" x="102.80116" y="467"> (70.8% of total variance)</text>
	</g>
	<g id="Shape Mode 2" class="layer">
		<path d="M 273.57228 267.50404 C275.47626,266.99245 277.2561,266.33918 279.12,265.85661 C280.98389,265.37404 282.93183,265.06216 284.61111,264.68693 C287.13003,264.12409 289.04446,263.41872 291.56755,263.32637 C292.40858,263.29559 293.31723,263.33292 294.145,263.3563 C294.97276,263.37969 295.71964,263.38912 296.50187,263.35906 C297.2841,263.32899 298.10168,263.25944 298.78804,263.04387 C299.4744,262.82829 300.02953,262.46669 300.63231,262.21092 C301.2351,261.95515 301.88554,261.80521 302.6195,261.75281 C303.35346,261.70042 304.17094,261.74556 304.85519,261.53675 C305.53944,261.32794 306.09047,260.86518 306.65882,260.45427 C307.22718,260.04336 307.81285,259.68429 308.32369,259.27232 C308.83453,258.86035 309.27052,258.39549 309.69898,257.84273 C310.98436,256.18446 312.2019,253.73517 312.84581,251.05311 C313.48973,248.37104 313.56002,245.45619 313.51398,242.80465 C313.48329,241.03695 313.40089,239.38628 313.42471,237.53364 C313.43662,236.60732 313.47508,235.63051 313.53097,234.69694 C313.64275,232.82979 313.82425,231.13561 313.72968,229.17282 C313.63511,227.21003 313.26448,224.97862 312.82089,222.96737 C312.5991,221.96175 312.35907,221.01117 312.28726,219.98769 C312.21545,218.96422 312.31186,217.86784 312.1039,216.89387 C311.89595,215.91991 311.38364,215.06835 310.90056,214.17007 C309.45133,211.47522 308.26525,208.35985 306.7292,205.43297 C305.19316,202.5061 303.30716,199.76772 301.02188,197.60721 C299.49836,196.16688 297.79738,194.98337 295.92943,193.82762 C294.99545,193.24975 294.01973,192.67881 293.0373,192.16164 C290.09001,190.61011 287.0823,189.54241 283.93025,189.01945 C281.82888,188.67082 279.66335,188.56429 277.489,188.3345 C276.40182,188.2196 275.31244,188.07389 274.21647,187.94161 C270.92855,187.54476 267.58128,187.26877 264.24533,187.40829 C262.02136,187.5013 259.80242,187.77898 257.65844,188.19327 C256.58645,188.40041 255.5332,188.64171 254.44574,188.8423 C253.35827,189.0429 252.23658,189.20279 251.17836,189.53817 C250.12013,189.87356 249.12536,190.38444 248.08918,190.77978 C247.053,191.17512 245.97542,191.45493 244.94721,191.85462 C243.919,192.25431 242.94017,192.77388 241.9742,193.32962 C239.07628,194.99683 236.29414,196.98952 233.59308,198.98319 C231.79238,200.3123 230.02772,201.64186 228.44333,203.21314 C227.65114,203.99878 226.90401,204.84486 226.16438,205.69414 C224.68511,207.39269 223.23582,209.10407 222.19086,211.11119 C221.66838,212.11475 221.24698,213.19224 220.7744,214.22026 C219.82923,216.27629 218.67932,218.13441 217.62659,220.08119 C217.10022,221.05458 216.59815,222.05014 216.29959,223.07673 C216.00103,224.10333 215.90598,225.16096 215.74204,226.20058 C215.57809,227.2402 215.34524,228.26179 215.13912,229.31851 C214.933,230.37522 214.75361,231.46707 214.64774,232.53771 C214.33015,235.74964 214.67431,238.77081 215.22151,241.91822 C215.58631,244.01649 216.04134,246.17086 216.82738,248.03431 C217.22041,248.96603 217.69618,249.82502 218.17006,250.72311 C218.64393,251.6212 219.1159,252.55841 219.66448,253.42679 C220.76165,255.16357 222.16527,256.62509 223.48074,258.19194 C224.13847,258.97537 224.77416,259.78514 225.44154,260.43412 C226.10892,261.0831 226.80798,261.5713 227.51139,262.14483 C228.2148,262.71836 228.92256,263.37722 229.67074,263.86431 C230.41891,264.3514 231.20749,264.66672 231.99742,264.92585 C233.57728,265.4441 235.1625,265.7376 236.83454,265.73387 C237.67056,265.73201 238.52829,265.65585 239.40798,265.58723 C240.28767,265.51862 241.18933,265.45756 242.11536,265.53032 C243.0414,265.60308 243.99181,265.80965 244.94921,266.02032 C245.90661,266.23098 246.871,266.44573 247.83674,266.63205 C249.76823,267.00469 251.70515,267.2636 253.60201,267.51495 C254.55044,267.64063 255.48885,267.76442 256.43054,267.90264 C259.25558,268.31731 262.11003,268.86193 264.89602,268.49409 C265.82469,268.37147 266.74575,268.14747 267.70418,268.08165 C268.66262,268.01584 269.65844,268.10821 270.64785,268.04421 C271.63727,267.98021 272.62029,267.75983 273.57228,267.50404" id="mode-2 position--2" class="data contour"/>
		<path d="M 273.01447 264.22723 C276.78106,263.28131 280.63274,262.21121 284.07073,261.27948 C286.64922,260.58068 288.99502,259.95973 291.48591,259.72495 C293.14651,259.56843 294.87159,259.58354 296.43527,259.53869 C297.2171,259.51627 297.95859,259.47886 298.66708,259.39911 C300.08408,259.2396 301.36911,258.91071 302.82873,258.83731 C303.55854,258.80061 304.332,258.82778 305.04208,258.70742 C305.75215,258.58707 306.39885,258.3192 307.03506,258.02921 C307.67127,257.73923 308.29698,257.42713 308.9018,257.0999 C309.50662,256.77268 310.09054,256.43033 310.64941,255.99164 C312.32604,254.67558 313.77724,252.4925 314.79761,250.0871 C315.81798,247.6817 316.40751,245.05399 316.69157,242.38446 C316.97562,239.71492 316.9542,237.00355 316.9309,234.24911 C316.91537,232.41282 316.899,230.55739 316.628,228.63394 C316.357,226.7105 315.83137,224.71905 315.22957,222.81563 C314.92867,221.86391 314.60873,220.9342 314.33986,219.9989 C314.07098,219.0636 313.85317,218.12271 313.46773,217.25758 C313.08228,216.39244 312.5292,215.60306 311.97675,214.78722 C310.31938,212.33967 308.66762,209.65392 306.74881,207.28468 C304.83001,204.91544 302.64416,202.86271 300.15906,201.14483 C297.67395,199.42694 294.88958,198.04391 291.99397,196.89039 C289.09835,195.73687 286.09148,194.81288 283.02103,194.26889 C279.95058,193.7249 276.81655,193.56091 273.638,193.33362 C270.45945,193.10633 267.23636,192.81572 264.04211,192.99562 C261.91261,193.11556 259.79592,193.44461 257.69231,193.76903 C255.5887,194.09346 253.49818,194.41326 251.44862,194.97539 C250.42385,195.25645 249.40931,195.59809 248.39287,195.92201 C247.37643,196.24593 246.35809,196.55211 245.36305,196.90973 C244.368,197.26735 243.39626,197.67641 242.43261,198.11295 C239.54166,199.42257 236.72359,200.9796 234.01476,202.64009 C231.30594,204.30059 228.70636,206.06457 226.32783,208.17316 C224.74214,209.5789 223.2547,211.1378 222.00446,212.81228 C221.37934,213.64952 220.81352,214.51565 220.22001,215.37765 C218.43947,217.96363 216.40969,220.51232 215.17791,223.30141 C214.35672,225.16081 213.8902,227.12704 213.43839,229.14867 C213.21249,230.15949 212.99027,231.18415 212.8458,232.20601 C212.4124,235.27158 212.6788,238.31189 213.30287,241.32058 C213.71891,243.32637 214.29392,245.31812 215.15436,247.10189 C215.58459,247.99377 216.08617,248.83366 216.61468,249.6593 C217.14318,250.48495 217.6986,251.29634 218.30913,252.06045 C219.53017,253.58867 220.97162,254.92774 222.38711,256.14348 C223.09486,256.75135 223.79611,257.32838 224.52196,257.83647 C225.97365,258.85264 227.52371,259.59303 229.12002,260.19896 C229.91817,260.50193 230.72789,260.77128 231.54433,260.95961 C233.17721,261.33628 234.83699,261.38886 236.54266,261.31905 C237.3955,261.28414 238.25981,261.21864 239.14154,261.20773 C240.90499,261.18591 242.73809,261.38249 244.61272,261.76466 C245.55004,261.95574 246.49773,262.19323 247.44132,262.4152 C250.27208,263.0811 253.06586,263.60738 255.87509,264.14179 C258.68431,264.6762 261.50898,265.21875 264.34673,265.08363 C265.29265,265.0386 266.24002,264.91826 267.21584,264.87863 C268.19165,264.839 269.1959,264.88007 270.1662,264.78624 C271.13649,264.69242 272.07282,264.4637 273.01447,264.22723" id="mode-2 position--1" class="data contour"/>
		<path d="M 272.52763 261.0114 C276.34822,260.2716 279.99847,258.97354 283.56958,257.90918 C286.24791,257.11091 288.88173,256.44409 291.3991,256.09035 C293.91647,255.73662 296.3174,255.69598 298.59937,255.77935 C300.88135,255.86272 303.04437,256.07011 305.21586,255.88771 C307.38736,255.70532 309.56734,255.13315 311.58809,254.09844 C312.26167,253.75353 312.91756,253.35723 313.52476,252.87124 C314.13195,252.38526 314.69045,251.80958 315.23476,251.17888 C315.77907,250.54819 316.30918,249.86249 316.78995,249.14448 C319.67454,244.83639 320.78249,239.36511 320.39026,233.7384 C320.12877,229.98726 319.20054,226.16703 317.64581,222.65246 C316.47976,220.01653 314.96131,217.55254 313.08083,215.3372 C311.82718,213.86031 310.41262,212.49393 308.97717,211.13322 C308.25944,210.45286 307.53649,209.77391 306.781,209.1494 C304.51452,207.27585 301.95519,205.89216 299.27896,204.6802 C293.92651,202.25626 288.10649,200.51922 282.12813,199.55526 C279.13895,199.07328 276.11018,198.78457 273.05348,198.63674 C269.99677,198.48891 266.91212,198.48195 263.84069,198.66519 C256.67403,199.09275 249.57932,200.55581 242.87657,202.87882 C240.00396,203.87439 237.20334,205.02792 234.45301,206.30739 C231.70267,207.58685 229.00263,208.99226 226.51742,210.70432 C224.03222,212.41638 221.76186,214.43508 219.63225,216.56697 C217.50265,218.69885 215.5138,220.94391 214.01292,223.50316 C211.01115,228.62165 209.96123,234.99689 211.35758,240.71572 C212.28848,244.52827 214.3066,248.04909 216.94175,250.73081 C218.91812,252.74211 221.24156,254.28142 223.63297,255.26351 C225.22724,255.91823 226.85173,256.32531 228.53668,256.63999 C229.37916,256.79733 230.23675,256.93157 231.09281,256.99804 C233.66099,257.19746 236.21539,256.78696 238.87147,256.86328 C241.52756,256.9396 244.28533,257.50275 247.03665,258.20028 C249.78797,258.89782 252.53284,259.72975 255.3156,260.39342 C258.09835,261.0571 260.919,261.55251 263.80996,261.6798 C266.70092,261.80709 269.66218,261.56625 272.52763,261.0114 z" id="mode-2 position-0" class="data contour"/>
		<path d="M 272.03207 257.84161 C275.83512,257.13684 279.41863,255.71481 283.09929,254.55616 C285.85978,253.68718 288.6749,252.96635 291.27438,252.44991 C293.00736,252.10562 294.6445,251.85216 296.20031,251.92488 C296.97822,251.96124 297.7358,252.07914 298.51422,252.22056 C300.07107,252.50339 301.71131,252.88028 303.22724,253.03818 C303.9852,253.11713 304.71209,253.14134 305.45807,253.14457 C307.69601,253.15426 310.10578,252.97518 312.51135,252.26452 C313.31321,252.02763 314.1146,251.73167 314.84619,251.33779 C315.57777,250.94392 316.23956,250.45212 316.87346,249.92057 C317.50737,249.38901 318.11339,248.81771 318.70307,248.20115 C320.47211,246.35146 322.09401,244.09445 323.04594,241.4905 C323.68056,239.75454 324.01742,237.86438 323.98351,236.00608 C323.96655,235.07693 323.85691,234.15574 323.71614,233.22703 C323.15306,229.5122 322.09198,225.67703 320.03536,222.43523 C318.49289,220.00388 316.39044,217.90629 314.13935,215.98099 C311.88827,214.05569 309.48856,212.30268 306.82906,211.02361 C304.16956,209.74454 301.25026,208.9394 298.39488,208.1709 C296.4913,207.65856 294.61611,207.1625 292.728,206.82147 C291.78395,206.65095 290.83666,206.51919 289.88521,206.3625 C287.03088,205.89246 284.13912,205.19815 281.23273,204.74207 C278.32635,204.28598 275.40534,204.06813 272.47069,204.01244 C269.53605,203.95675 266.58777,204.06322 263.63883,204.27487 C259.7069,204.55707 255.7738,205.02624 251.92223,205.74942 C249.99645,206.11101 248.09104,206.5361 246.18315,206.96596 C245.22921,207.1809 244.27464,207.39702 243.32344,207.62276 C237.61627,208.97721 232.03054,210.67781 226.72959,213.24546 C224.07911,214.52929 221.49983,216.02988 219.10728,217.75153 C216.71474,219.47319 214.50894,221.41591 212.77432,223.72638 C211.03971,226.03686 209.77629,228.71509 209.19601,231.54398 C208.61573,234.37287 208.7186,237.35243 209.46903,240.1077 C209.96931,241.94455 210.75739,243.68171 211.80007,245.25407 C212.84274,246.82643 214.14002,248.23399 215.58018,249.37511 C217.02034,250.51623 218.60339,251.39091 220.2118,252.02364 C221.01601,252.34 221.82655,252.59588 222.67374,252.76024 C224.36811,253.08896 226.20906,253.0516 227.99339,253.03299 C228.88555,253.02368 229.76356,253.01906 230.64414,252.97982 C233.28588,252.86212 235.9508,252.43292 238.61466,252.52584 C243.94239,252.71168 249.26587,254.98601 254.76246,256.60096 C256.59465,257.13928 258.44608,257.60433 260.36106,257.91494 C261.31856,258.07024 262.29194,258.18693 263.26995,258.26403 C266.20401,258.4953 269.17978,258.37018 272.03207,257.84161 z" id="mode-2 position-1" class="data contour"/>
		<path d="M 271.49026 254.60085 C273.37622,254.28924 275.30114,253.82333 277.13552,253.20947 C278.9699,252.59561 280.71372,251.83381 282.58943,251.18178 C285.40299,250.20374 288.51329,249.4727 291.18957,248.82894 C292.97376,248.39978 294.56505,248.0094 296.07533,248.09526 C296.83046,248.13819 297.56535,248.30018 298.39257,248.58616 C299.21979,248.87213 300.13934,249.2821 300.99843,249.55961 C301.85753,249.83713 302.65616,249.98219 303.42191,250.09369 C304.18766,250.2052 304.92052,250.28315 305.6867,250.36776 C307.21906,250.537 308.88468,250.73291 310.68548,250.65586 C311.58589,250.61734 312.52008,250.51057 313.46081,250.39364 C314.40154,250.27672 315.3488,250.14963 316.18156,249.85334 C317.01431,249.55705 317.73256,249.09155 318.45938,248.6388 C319.18619,248.18605 319.92158,247.74604 320.64895,247.24214 C322.83106,245.73044 324.941,243.64373 326.21505,241.04302 C327.06442,239.30922 327.54228,237.34697 327.50894,235.49911 C327.49228,234.57518 327.34781,233.67985 327.14065,232.75119 C326.72632,230.89385 326.06118,228.90318 325.29971,227.12938 C324.53824,225.35559 323.68042,223.79868 322.47447,222.28511 C321.87149,221.52833 321.18148,220.78239 320.35583,220.12165 C319.53017,219.46091 318.56887,218.88538 317.6958,218.30629 C316.82273,217.7272 316.03789,217.14455 315.21281,216.5963 C312.73756,214.95155 309.90016,213.61638 306.8573,212.87731 C303.81444,212.13824 300.56614,211.99528 297.52336,211.7033 C295.49485,211.50864 293.55767,211.24775 291.65945,211.14222 C290.71033,211.08946 289.77096,211.07554 288.83022,211.04456 C286.94874,210.98262 285.06183,210.85249 283.17029,210.51088 C282.22451,210.34007 281.27759,210.11639 280.33411,209.94274 C277.50368,209.42178 274.7043,209.35105 271.89207,209.40051 C269.07984,209.44997 266.25477,209.61962 263.43125,209.86635 C259.66656,210.19532 255.90463,210.6613 252.15349,211.09368 C251.21571,211.20177 250.2786,211.30776 249.35638,211.47699 C248.43416,211.64623 247.52683,211.8787 246.59955,212.04229 C245.67228,212.20588 244.72505,212.30058 243.77878,212.40409 C238.10119,213.02515 232.45822,213.9632 226.93206,215.77931 C225.09001,216.38468 223.26094,217.08761 221.3561,217.78847 C220.40368,218.13891 219.43231,218.48882 218.51894,218.89939 C216.6922,219.72052 215.09744,220.78425 213.69497,222.02496 C212.99373,222.64531 212.34057,223.30991 211.64382,223.98388 C210.94707,224.65785 210.20673,225.34119 209.63039,226.10705 C209.05405,226.87292 208.64171,227.72129 208.28065,228.58502 C207.91958,229.44875 207.60979,230.32782 207.38425,231.22885 C206.70763,233.93194 206.78927,236.83258 207.54105,239.5048 C207.79165,240.39555 208.1167,241.26091 208.57363,242.04773 C209.03056,242.83454 209.61937,243.54281 210.18332,244.28066 C210.74727,245.01851 211.28636,245.78594 211.95841,246.4267 C212.63045,247.06747 213.43544,247.58156 214.23426,248.03478 C216.63071,249.39446 218.97162,250.20635 221.7425,250.2383 C222.66613,250.24895 223.63754,250.17294 224.59352,249.98966 C225.5495,249.80638 226.49007,249.51583 227.42076,249.35909 C228.35145,249.20235 229.27228,249.17943 230.19042,249.0678 C232.02671,248.84453 233.85228,248.26644 235.65638,248.12198 C236.55843,248.04976 237.45511,248.08594 238.34448,248.16535 C243.6807,248.64183 248.75382,250.67454 254.19439,252.82234 C255.10116,253.18031 256.01813,253.54148 256.94973,253.7864 C257.88133,254.03133 258.82757,254.16002 259.79091,254.30757 C260.75425,254.45511 261.73468,254.62151 262.72732,254.79705 C263.71996,254.97259 264.72479,255.15726 265.71907,255.19113 C266.71336,255.225 267.69709,255.10806 268.65557,254.99097 C269.61405,254.87389 270.54729,254.75666 271.49026,254.60085 z" id="mode-2 position-2" class="data contour"/>
		<text font-size="14" class="shapemode label" text-anchor="middle" x="267.21026" y="454.5">Shape Mode 2</text>
		<text font-size="12" class="shapemode label" text-anchor="middle" x="267.21026" y="467"> (13.1% of total variance)</text>
	</g>
	<g id="Shape Mode 3" class="layer">
		<path d="M 416.48445 260.83157 C417.46066,260.69775 418.45045,260.57975 419.40284,260.43791 C420.35524,260.29607 421.27023,260.13038 422.17489,259.78719 C423.07955,259.44399 423.97388,258.9233 424.91229,258.63567 C425.85071,258.34804 426.83321,258.29348 427.77932,258.17027 C429.67153,257.92384 431.41816,257.40282 433.20559,257.1015 C434.09931,256.95084 435.00323,256.8551 435.93106,256.71774 C438.71454,256.30566 441.71319,255.51899 444.88671,255.2678 C445.94455,255.18407 447.02182,255.15983 448.05549,255.28828 C449.08917,255.41672 450.07924,255.69785 451.06635,255.90388 C452.05346,256.10991 453.0376,256.24084 454.0666,256.31425 C456.12462,256.46106 458.36209,256.37773 460.22337,255.78743 C461.15401,255.49228 461.9906,255.07039 462.76537,254.54145 C464.31491,253.48359 465.61717,251.99756 466.38825,249.80037 C466.77379,248.70178 467.02654,247.4254 467.18948,246.24545 C467.35242,245.0655 467.42554,243.98198 467.58348,242.89999 C467.74141,241.818 467.98415,240.73753 468.02481,239.67154 C468.06548,238.60554 467.90406,237.55401 467.74855,236.51519 C467.59305,235.47638 467.44344,234.45026 467.14879,233.32705 C466.85415,232.20384 466.41445,230.98353 466.03826,229.85694 C465.66207,228.73036 465.34938,227.6975 464.97447,226.65069 C464.59957,225.60387 464.16245,224.5431 463.60484,223.45534 C463.04722,222.36759 462.36912,221.25285 461.85278,220.32322 C461.33644,219.39359 460.98187,218.64906 460.47024,217.89144 C459.95861,217.13383 459.28992,216.36311 458.65496,215.6558 C458.01999,214.94849 457.41874,214.30458 456.74219,213.62338 C456.06564,212.94218 455.3138,212.22369 454.56297,211.62568 C453.81214,211.02767 453.06233,210.55012 452.31649,210.04103 C450.82481,209.02284 449.34903,207.87843 447.85403,206.73998 C447.10653,206.17076 446.35423,205.60302 445.60972,205.09207 C444.1207,204.07016 442.66286,203.2754 441.10673,202.45851 C440.32867,202.05007 439.52604,201.6361 438.7103,201.31035 C436.26309,200.3331 433.69794,200.14985 431.17847,199.2872 C430.33865,198.99966 429.5039,198.63662 428.67194,198.37254 C427.83998,198.10845 427.01081,197.94332 426.18358,197.7316 C425.35634,197.51987 424.53105,197.26155 423.68401,197.1183 C421.98993,196.83179 420.20889,197.00555 418.51312,196.92402 C417.66524,196.88326 416.83868,196.77867 415.99437,196.71045 C413.46142,196.50578 410.76868,196.62836 408.14102,196.99189 C407.26514,197.11307 406.39648,197.26102 405.51866,197.33564 C404.64084,197.41025 403.75386,197.41154 402.87239,197.48513 C401.10944,197.63231 399.36855,198.0687 397.66826,198.54999 C395.96797,199.03129 394.30828,199.55749 392.60748,200.02689 C391.75709,200.26159 390.89641,200.48209 390.0819,200.82705 C388.45288,201.51695 387.00853,202.70468 385.45269,203.50393 C384.67477,203.90355 383.86897,204.20606 383.07962,204.54389 C380.71156,205.55738 378.4915,206.88874 376.292,208.36083 C374.0925,209.83291 371.91355,211.44571 369.63913,213.14038 C368.12286,214.27017 366.56416,215.43634 365.21291,216.61175 C364.53728,217.19946 363.91352,217.78948 363.25273,218.44801 C361.93115,219.76509 360.46148,221.35624 359.23361,223.04523 C358.61968,223.88973 358.0662,224.75868 357.57036,225.65146 C356.08281,228.32978 355.11393,231.22251 354.56487,234.54727 C354.38185,235.65552 354.24547,236.81177 354.37137,237.82868 C354.49727,238.84558 354.88545,239.72313 355.17943,240.7577 C355.47341,241.79227 355.67319,242.98386 355.92696,243.9842 C356.18072,244.98454 356.48847,245.79365 357.01621,246.70639 C357.54395,247.61914 358.29169,248.63554 358.94953,249.62855 C359.60736,250.62157 360.17529,251.59121 360.77364,252.27504 C361.37198,252.95886 362.00075,253.35688 362.73857,253.75715 C363.47639,254.15742 364.32326,254.55994 365.13391,254.91296 C365.94457,255.26597 366.71901,255.56947 367.63668,255.76817 C368.55436,255.96688 369.61526,256.06079 370.6178,255.93974 C371.62033,255.81868 372.5645,255.48268 373.60311,255.25644 C374.64173,255.0302 375.7748,254.91372 376.90179,254.79188 C378.02877,254.67003 379.14968,254.54281 380.25855,254.44661 C382.47628,254.25421 384.64587,254.18591 386.651,254.27497 C387.65356,254.3195 388.61502,254.40338 389.59659,254.65548 C391.55973,255.1597 393.60336,256.33684 395.65503,257.15337 C396.68086,257.56164 397.7087,257.87975 398.72579,258.22833 C399.74287,258.57691 400.7492,258.95595 401.75287,259.20569 C402.75655,259.45544 403.75757,259.57588 404.72786,259.72969 C405.69814,259.8835 406.63769,260.07068 407.60602,260.27624 C409.54268,260.68736 411.59447,261.172 413.5619,261.13402 C414.54561,261.11503 415.50824,260.96539 416.48445,260.83157 z" id="mode-3 position--2" class="data contour"/>
		<path d="M 416.68826 259.57409 C418.61953,259.25997 420.48095,258.86643 422.3175,258.2572 C423.23578,257.95259 424.14784,257.59405 425.07593,257.32548 C426.00403,257.05691 426.94816,256.87831 427.86318,256.67631 C429.69322,256.27231 431.40683,255.77469 433.16646,255.44935 C434.04628,255.28668 434.9376,255.16708 435.83172,255.03736 C438.51407,254.64819 441.2216,254.16793 443.90746,254.15087 C445.69803,254.13951 447.47898,254.33401 449.2271,254.51632 C450.10116,254.60747 450.96701,254.69558 451.84096,254.71887 C454.46282,254.78874 457.15757,254.27523 459.35996,252.94815 C460.82821,252.06343 462.07764,250.81713 462.97901,249.11263 C463.4297,248.26038 463.79337,247.29359 464.12806,246.34114 C465.13214,243.4838 465.87541,240.75561 465.98454,237.84909 C466.09366,234.94257 465.56865,231.85771 464.79708,228.80142 C464.28269,226.76389 463.65873,224.73905 462.92049,222.89369 C462.18225,221.04833 461.32974,219.38245 460.32985,217.775 C459.32996,216.16754 458.18269,214.61851 456.88404,213.26852 C456.23472,212.59353 455.54755,211.9683 454.85413,211.33533 C452.77388,209.43644 450.63738,207.46794 448.37287,205.77876 C446.10836,204.08959 443.71586,202.67975 441.16811,201.6232 C438.62036,200.56666 435.91736,199.86341 433.2225,199.06076 C430.52763,198.2581 427.84089,197.35603 425.07102,196.9497 C423.22445,196.67882 421.34093,196.62826 419.47886,196.49654 C418.54782,196.43069 417.62214,196.34454 416.68913,196.2894 C413.89008,196.12398 411.02502,196.23759 408.1645,196.44772 C404.35048,196.7279 400.54455,197.17968 396.84977,198.07555 C395.00238,198.52349 393.18278,199.08244 391.35878,199.6157 C390.44678,199.88233 389.53368,200.14253 388.64776,200.47593 C386.87591,201.14271 385.21279,202.10226 383.50298,202.90681 C382.64807,203.30909 381.78149,203.67263 380.92886,204.0572 C378.37099,205.21093 375.93869,206.55404 373.58557,208.14795 C371.23245,209.74186 368.95851,211.58656 366.79018,213.48369 C364.62184,215.38082 362.55911,217.33037 360.77076,219.62396 C358.98241,221.91755 357.46844,224.55517 356.48468,227.37238 C355.50093,230.18959 355.0474,233.1864 355.13317,236.25522 C355.16176,237.27817 355.25027,238.30911 355.48834,239.2855 C355.7264,240.26188 356.11403,241.18371 356.49325,242.11851 C356.87246,243.0533 357.24327,244.00105 357.66633,244.87622 C358.08939,245.75139 358.5647,246.55398 359.1605,247.35348 C359.7563,248.15298 360.47258,248.9494 361.16319,249.7137 C361.8538,250.478 362.51872,251.21019 363.2056,251.7868 C363.89248,252.36341 364.6013,252.78443 365.35234,253.16034 C366.85442,253.91217 368.52534,254.48358 370.2937,254.80276 C371.17788,254.96235 372.08642,255.05889 373.00681,255.05703 C374.8476,255.05331 376.73581,254.65602 378.72959,254.45417 C379.72648,254.35324 380.74977,254.30117 381.75387,254.27523 C384.76616,254.19742 387.60575,254.35476 390.48509,255.08555 C393.36443,255.81634 396.28353,257.12058 399.18756,257.97854 C402.09159,258.8365 404.98056,259.24819 407.89618,259.5989 C409.83992,259.83271 411.79551,260.03942 413.75818,259.92538 C414.73951,259.86836 415.72262,259.73115 416.68826,259.57409 z" id="mode-3 position--1" class="data contour"/>
		<path d="M 416.86578 258.25878 C420.68637,257.51897 424.33661,256.22092 427.90772,255.15655 C430.58605,254.35828 433.21987,253.69146 435.73725,253.33773 C438.25462,252.984 440.65555,252.94335 442.93752,253.02672 C445.21949,253.1101 447.38251,253.31748 449.55401,253.13509 C451.72551,252.9527 453.90549,252.38053 455.92623,251.34581 C456.59982,251.00091 457.25571,250.60461 457.8629,250.11862 C458.4701,249.63263 459.0286,249.05695 459.57291,248.42626 C460.11722,247.79557 460.64733,247.10986 461.1281,246.39185 C464.01269,242.08377 465.12064,236.61249 464.72841,230.98577 C464.46692,227.23463 463.53869,223.41441 461.98396,219.89984 C460.81791,217.26391 459.29946,214.79991 457.41898,212.58458 C456.16532,211.10769 454.75077,209.74131 453.31531,208.38059 C452.59759,207.70023 451.87464,207.02129 451.11915,206.39677 C448.85267,204.52323 446.29334,203.13954 443.61711,201.92757 C438.26466,199.50364 432.44464,197.76659 426.46628,196.80263 C423.4771,196.32066 420.44833,196.03195 417.39163,195.88412 C414.33492,195.73629 411.25027,195.72933 408.17884,195.91257 C401.01217,196.34012 393.91747,197.80318 387.21471,200.12619 C384.34211,201.12177 381.54149,202.2753 378.79115,203.55476 C376.04082,204.83423 373.34078,206.23964 370.85557,207.9517 C368.37037,209.66375 366.1,211.68246 363.9704,213.81434 C361.8408,215.94623 359.85195,218.19128 358.35107,220.75053 C355.3493,225.86902 354.29938,232.24426 355.69573,237.96309 C356.62662,241.77565 358.64475,245.29646 361.2799,247.97819 C363.25626,249.98949 365.5797,251.52879 367.97112,252.51088 C369.56539,253.16561 371.18988,253.57268 372.87483,253.88736 C373.71731,254.0447 374.5749,254.17895 375.43096,254.24542 C377.99914,254.44484 380.55353,254.03433 383.20962,254.11065 C385.8657,254.18697 388.62348,254.75012 391.3748,255.44766 C394.12612,256.1452 396.87098,256.97713 399.65374,257.6408 C402.4365,258.30447 405.25715,258.79989 408.14811,258.92718 C411.03906,259.05447 414.00033,258.81363 416.86578,258.25878 z" id="mode-3 position-0" class="data contour"/>
		<path d="M 417.04628 256.99734 C418.92333,256.54376 420.77228,255.89694 422.61505,255.33053 C424.45782,254.76412 426.29441,254.27811 428.03519,253.72571 C430.64636,252.8971 433.04197,251.91913 435.59864,251.61757 C436.45087,251.51706 437.32099,251.49169 438.06177,251.49667 C438.80254,251.50164 439.41398,251.53694 440.04147,251.63288 C440.66897,251.72882 441.31253,251.88539 441.92865,251.96632 C443.16088,252.12819 444.28333,251.9875 445.51121,251.8521 C446.12514,251.7844 446.76544,251.71802 447.34974,251.58804 C448.51835,251.32809 449.46299,250.81374 450.63288,250.40017 C451.21782,250.19338 451.85907,250.01179 452.50309,249.77967 C453.14712,249.54754 453.7939,249.26488 454.40626,248.90513 C455.01862,248.54539 455.59655,248.10855 456.19249,247.70502 C456.78843,247.30149 457.40239,246.93127 458.02132,246.45835 C458.64025,245.98544 459.26416,245.40984 459.7865,244.79437 C460.30883,244.17889 460.72959,243.52354 461.15906,242.8022 C461.58853,242.08086 462.02671,241.29354 462.40939,240.49387 C462.79207,239.6942 463.11924,238.88219 463.42559,238.09373 C463.73195,237.30528 464.01747,236.54037 464.18722,235.71245 C464.35697,234.88452 464.41095,233.99358 464.49934,233.12957 C464.67614,231.40157 464.99062,229.78132 464.8338,227.90816 C464.75539,226.97158 464.55916,225.97176 464.35542,224.96788 C464.15168,223.96399 463.94043,222.95603 463.65028,221.97888 C463.36013,221.00173 462.99108,220.05538 462.64941,219.13551 C462.30774,218.21563 461.99347,217.32222 461.54749,216.45894 C461.10151,215.59566 460.52383,214.76251 459.92894,213.93364 C458.14425,211.44706 456.20459,208.99908 453.87972,207.03219 C451.55486,205.06529 448.84479,203.57947 446.06187,202.17385 C444.20658,201.23677 442.31891,200.33533 440.3443,199.62619 C439.357,199.27162 438.34796,198.96512 437.32573,198.67852 C434.25902,197.81872 431.07352,197.13796 427.8674,196.56479 C425.72999,196.18268 423.58341,195.84838 421.39151,195.68687 C420.29556,195.60611 419.18828,195.56855 418.08603,195.52517 C414.77928,195.39502 411.51782,195.21246 408.19444,195.32997 C407.08665,195.36914 405.97198,195.44165 404.88486,195.57534 C403.79774,195.70903 402.73817,195.9039 401.66594,196.08279 C400.5937,196.26168 399.50879,196.4246 398.42761,196.59653 C397.34642,196.76846 396.26896,196.94941 395.19922,197.16227 C391.98998,197.80086 388.85018,198.72668 385.75587,199.70866 C382.66157,200.69063 379.61275,201.72877 376.64158,203.03928 C373.6704,204.3498 370.77687,205.93269 368.14941,207.78356 C365.52196,209.63443 363.16058,211.75329 361.12849,214.11347 C359.77375,215.68692 358.56537,217.36763 357.41171,219.16469 C356.83489,220.06321 356.27175,220.99083 355.84611,221.93209 C354.99484,223.81462 354.6936,225.75174 354.46016,227.78016 C354.34345,228.79437 354.24368,229.83139 354.24001,230.8621 C354.22902,233.95423 355.08295,236.98948 356.29714,239.67049 C356.70186,240.56416 357.14662,241.41846 357.62598,242.27185 C358.10533,243.12524 358.61929,243.9777 359.20293,244.72595 C359.78657,245.4742 360.43988,246.11823 361.14564,246.76844 C361.85141,247.41865 362.60961,248.07503 363.37172,248.59593 C364.89593,249.63772 366.43573,250.13757 368.04699,250.87891 C368.85262,251.24958 369.67612,251.68062 370.50936,251.96988 C372.17585,252.54839 373.88131,252.55978 375.49992,252.88598 C376.30923,253.04909 377.09682,253.2909 377.87114,253.45578 C380.1941,253.95045 382.39756,253.75284 384.70645,253.97588 C386.24572,254.12457 387.83185,254.46021 389.59809,255.02848 C390.48121,255.31261 391.40936,255.6549 392.28662,255.89639 C393.16388,256.13789 393.99026,256.27858 394.86203,256.40446 C395.7338,256.53035 396.65097,256.64142 397.52825,256.78403 C398.40554,256.92665 399.24294,257.1008 400.10971,257.28749 C401.84324,257.66089 403.69424,258.08448 405.5676,258.19321 C406.50428,258.24757 407.44655,258.22322 408.40307,258.17241 C410.3161,258.07078 412.28611,257.86331 414.20351,257.55618 C415.16221,257.40261 416.10776,257.22413 417.04628,256.99734" id="mode-3 position-1" class="data contour"/>
		<path d="M 417.26095 255.7743 C418.17846,255.51396 419.05026,255.13351 419.95883,254.75391 C420.86741,254.37432 421.81275,253.99558 422.75658,253.77774 C423.70041,253.55991 424.64273,253.50298 425.53978,253.26803 C426.43684,253.03309 427.28862,252.62012 428.12403,252.24124 C430.63026,251.10461 432.98916,250.27475 435.49812,249.9776 C436.33444,249.87855 437.18743,249.83869 437.83896,249.89777 C438.49048,249.95684 438.94054,250.11486 439.43925,250.29618 C439.93796,250.47751 440.48532,250.68215 440.96027,250.83191 C441.43522,250.98166 441.83775,251.07654 442.26769,250.99224 C442.69763,250.90794 443.15496,250.64447 443.65439,250.45951 C444.15382,250.27455 444.69533,250.1681 445.12789,250.00187 C445.56045,249.83564 445.88404,249.60963 446.23341,249.339 C446.58278,249.06838 446.95791,248.75314 447.43721,248.5654 C447.9165,248.37765 448.49996,248.3174 449.09367,248.20346 C449.68737,248.08953 450.29134,247.92192 450.9045,247.68654 C451.51767,247.45116 452.14004,247.14802 452.80531,246.98247 C453.47058,246.81693 454.17875,246.78898 454.95227,246.55353 C455.72578,246.31807 456.56464,245.87511 457.2059,245.40859 C457.84716,244.94207 458.29083,244.452 458.85074,243.85416 C459.41066,243.25633 460.08682,242.55073 460.64889,241.8226 C461.21095,241.09447 461.65893,240.34383 462.16207,239.66912 C462.66522,238.99442 463.22353,238.39566 463.58877,237.67628 C463.95401,236.95691 464.12617,236.11692 464.34826,235.2992 C464.57035,234.48148 464.84237,233.68602 465.1504,232.91454 C465.45842,232.14305 465.80245,231.39553 465.86889,230.46367 C465.93534,229.5318 465.72421,228.41558 465.6194,227.31886 C465.51459,226.22214 465.5161,225.14492 465.34424,224.08215 C465.17238,223.01937 464.82714,221.97104 464.58805,220.9773 C464.34896,219.98356 464.21602,219.04442 463.88772,218.08421 C463.55942,217.12401 463.03575,216.14275 462.48486,215.19933 C460.83218,212.36908 458.93442,209.87942 456.62692,207.70598 C455.85776,206.9815 455.04306,206.29215 454.16187,205.66422 C453.28068,205.03628 452.33299,204.46975 451.37691,203.96556 C450.42083,203.46136 449.45636,203.0195 448.49206,202.51982 C446.56347,201.52046 444.63558,200.28983 442.56787,199.46994 C441.53402,199.06 440.46521,198.75274 439.37813,198.47349 C436.1169,197.63575 432.69125,197.05011 429.26665,196.36448 C428.12511,196.13594 426.98369,195.89628 425.83469,195.70988 C424.68569,195.52348 423.52911,195.39033 422.34995,195.30435 C421.17078,195.21837 419.96903,195.17957 418.78095,195.13146 C415.21669,194.98713 411.77538,194.75907 408.21264,194.78443 C407.02506,194.79289 405.82398,194.8295 404.66724,194.97722 C403.5105,195.12495 402.39809,195.38379 401.26848,195.61562 C400.13887,195.84745 398.99206,196.05227 397.83255,196.20348 C396.67305,196.35469 395.50084,196.4523 394.35214,196.63595 C390.90602,197.18691 387.6714,198.51232 384.3298,199.3852 C382.10207,199.96713 379.82679,200.34793 377.66713,201.15368 C376.58731,201.55656 375.53639,202.06567 374.49038,202.57333 C371.35235,204.0963 368.25852,205.6062 365.44297,207.55263 C363.56594,208.85024 361.81258,210.34188 360.35722,211.9589 C359.62955,212.76742 358.97637,213.60728 358.34173,214.46716 C357.07247,216.18692 355.8774,217.98675 354.77858,219.99722 C354.22917,221.00245 353.70382,222.06034 353.36976,223.10153 C352.70163,225.18391 352.79863,227.19946 352.8744,229.35025 C352.91228,230.42564 352.94486,231.53484 353.10509,232.61339 C353.42555,234.7705 354.25663,236.805 355.23377,238.7107 C355.72234,239.66355 356.24742,240.58419 356.84575,241.40059 C357.44408,242.21699 358.11565,242.92914 358.72128,243.73075 C359.3269,244.53235 359.86657,245.42343 360.54492,246.0742 C361.22326,246.72497 362.04028,247.13544 362.88905,247.66664 C363.73781,248.19784 364.61832,248.84978 365.46759,249.2506 C367.16614,250.05224 368.73973,249.84941 370.45278,250.39673 C371.30931,250.67039 372.20071,251.13158 373.08352,251.3897 C374.84914,251.90592 376.58043,251.60983 378.10564,251.91544 C378.86824,252.06824 379.57932,252.37147 380.28097,252.62424 C381.68428,253.12979 383.04989,253.43348 384.29408,253.59673 C384.91617,253.67836 385.50791,253.72487 386.16132,253.81552 C386.81473,253.90617 387.52981,254.04096 388.25521,254.30226 C388.9806,254.56355 389.71631,254.95134 390.56675,255.3351 C391.4172,255.71885 392.38237,256.09856 393.21645,256.31074 C394.05053,256.52291 394.7535,256.56755 395.57575,256.59224 C396.398,256.61693 397.33951,256.62168 398.18194,256.67377 C399.02437,256.72586 399.76772,256.8253 400.56818,256.95916 C402.16911,257.22687 403.99847,257.63226 405.85869,257.66987 C406.7888,257.68867 407.72662,257.61553 408.6728,257.48228 C410.56516,257.21577 412.49094,256.70879 414.41714,256.35284 C415.38024,256.17486 416.34344,256.03464 417.26095,255.7743 z" id="mode-3 position-2" class="data contour"/>
		<text font-size="14" class="shapemode label" text-anchor="middle" x="410.43654" y="454.5">Shape Mode 3</text>
		<text font-size="12" class="shapemode label" text-anchor="middle" x="410.43654" y="467"> (4.8% of total variance)</text>
	</g>
	<g id="Shape Mode 4" class="layer">
		<path d="M 556.22297 251.11743 C557.21838,250.98109 558.2423,250.94814 559.22887,250.74785 C560.21543,250.54755 561.16463,250.17991 562.13405,249.97549 C563.10348,249.77106 564.09313,249.72985 565.0847,249.59898 C566.07628,249.4681 567.06977,249.24755 568.00503,248.99535 C568.94029,248.74314 569.81732,248.45928 570.70894,248.29094 C571.60057,248.1226 572.5068,248.06978 573.40125,247.97863 C574.2957,247.88748 575.17838,247.758 576.09954,247.7914 C577.94185,247.8582 579.93808,248.57656 581.70142,249.49845 C582.58309,249.95939 583.40654,250.47122 584.19962,251.02233 C585.78576,252.12455 587.25041,253.3839 588.82546,254.24987 C589.61299,254.68285 590.42811,255.01749 591.13988,255.15136 C591.85165,255.28523 592.46007,255.21833 593.0643,255.10676 C593.66854,254.99519 594.2686,254.83897 594.80563,254.54274 C595.34266,254.24652 595.81665,253.81029 596.30652,253.31485 C597.28626,252.32396 598.32949,251.09617 599.40006,250.05705 C599.93534,249.5375 600.47746,249.06511 600.95678,248.49463 C602.39475,246.7832 603.26758,244.189 603.02859,241.35544 C602.94892,240.41092 602.74573,239.4398 602.63747,238.47673 C602.52921,237.51366 602.51589,236.55863 602.33331,235.64385 C602.15073,234.72906 601.79889,233.85452 601.48292,232.95866 C600.21906,229.37523 599.52918,225.45071 597.76179,221.88737 C597.31994,220.99654 596.81075,220.12827 596.37406,219.26418 C595.93738,218.40009 595.57319,217.54016 595.11164,216.72657 C594.65009,215.91298 594.09117,215.14571 593.53836,214.36056 C591.87995,212.00511 590.27662,209.48869 588.39016,207.26632 C586.5037,205.04396 584.3341,203.11565 582.04164,201.21471 C580.51334,199.94741 578.93043,198.69227 577.19429,197.72126 C576.32622,197.23575 575.41985,196.82127 574.48665,196.42404 C572.62025,195.62958 570.64658,194.90408 568.72042,194.30959 C567.75734,194.01235 566.80614,193.74785 565.82767,193.55586 C563.87073,193.17188 561.80471,193.07793 559.76754,192.87184 C558.74896,192.7688 557.73759,192.63772 556.71101,192.52481 C554.65783,192.29897 552.54378,192.14579 550.45314,192.23023 C549.40782,192.27246 548.36835,192.37409 547.31965,192.44464 C546.27095,192.51518 545.21302,192.55464 544.18149,192.67806 C543.14996,192.80149 542.14483,193.00887 541.13583,193.21362 C539.11782,193.62312 537.08432,194.02208 535.0797,194.5964 C532.07276,195.45788 529.13079,196.7139 526.31247,198.10699 C523.49415,199.50008 520.79948,201.03023 518.20976,202.76542 C515.62004,204.50061 513.13527,206.44083 510.90993,208.51807 C509.42638,209.90289 508.05812,211.3486 506.83139,212.91278 C506.21803,213.69487 505.64004,214.50657 505.02855,215.30548 C503.80557,216.90328 502.44855,218.44986 501.14058,219.97096 C500.48659,220.73151 499.84487,221.48569 499.25875,222.24487 C498.67263,223.00405 498.14211,223.76824 497.69883,224.62373 C497.25555,225.47923 496.89951,226.42603 496.47942,227.35577 C496.05933,228.2855 495.5752,229.19817 495.24388,230.15556 C494.58123,232.07034 494.52983,234.16403 494.53999,236.16159 C494.54507,237.16037 494.56554,238.13511 494.67553,239.12115 C494.78552,240.10718 494.98503,241.1045 495.28747,242.0592 C495.58991,243.01391 495.99528,243.926 496.43043,244.76497 C496.86558,245.60393 497.33051,246.36978 497.80998,247.16706 C498.28944,247.96434 498.78344,248.79307 499.40951,249.46545 C500.03557,250.13784 500.79372,250.65388 501.47544,251.19938 C502.15716,251.74488 502.76247,252.31985 503.39615,252.85646 C504.02984,253.39307 504.6919,253.89132 505.46055,254.2672 C506.99786,255.01895 508.96155,255.28118 510.64161,255.23272 C511.48164,255.20849 512.25076,255.10659 513.05085,254.98371 C514.65104,254.73796 516.37514,254.40834 518.06492,253.96826 C518.90981,253.74821 519.74612,253.50056 520.61665,253.24206 C522.35771,252.72507 524.23565,252.16473 526.14822,251.95323 C527.1045,251.84749 528.06944,251.82895 529.0463,251.81731 C531.00001,251.79402 533.00138,251.79828 534.91786,251.8803 C535.87611,251.92132 536.81313,251.98177 537.77302,252.0518 C538.73291,252.12182 539.71567,252.20141 540.75076,252.19505 C541.78586,252.1887 542.87328,252.09638 543.90336,252.07935 C544.93344,252.06232 545.90617,252.12057 546.9276,252.13739 C548.97045,252.17104 551.20809,252.03898 553.24315,251.67533 C554.26068,251.4935 555.22757,251.25377 556.22297,251.11743 z" id="mode-4 position--2" class="data contour"/>
		<path d="M 556.03951 254.23024 C557.01497,254.05807 557.97284,253.85995 558.92252,253.62817 C559.87219,253.39639 560.81367,253.13096 561.7663,252.88973 C563.67157,252.40727 565.62143,252.02161 567.44528,251.57442 C569.26913,251.12723 570.96697,250.61852 572.72616,250.31918 C573.60575,250.16951 574.50068,250.07219 575.39681,250.04874 C577.18909,250.00185 578.9862,250.25047 580.63959,250.70556 C581.46628,250.93311 582.25704,251.21227 583.03074,251.51154 C584.57814,252.11008 586.05731,252.78906 587.57079,253.20142 C588.32753,253.4076 589.09285,253.54713 589.81882,253.59539 C591.99673,253.74016 593.82049,253.06353 595.58436,251.80605 C596.76027,250.96773 597.90957,249.87126 598.97587,248.72717 C599.50903,248.15512 600.02143,247.57116 600.49088,246.92499 C601.89923,244.98648 602.92098,242.48805 603.09164,239.75098 C603.14852,238.83863 603.11084,237.89975 603.10791,236.96408 C603.10498,236.02841 603.13679,235.09594 603.04948,234.18055 C602.96217,233.26515 602.75573,232.36683 602.55614,231.45427 C601.75778,227.80402 601.069,223.9259 599.35216,220.36828 C598.92295,219.47888 598.42949,218.6095 597.9845,217.75678 C597.53951,216.90406 597.14299,216.06799 596.645,215.27336 C596.14701,214.47872 595.54754,213.72551 594.94531,212.96686 C593.13859,210.69091 591.30692,208.36597 589.22385,206.33071 C587.14077,204.29545 584.80628,202.54986 582.31117,201.01813 C579.81605,199.4864 577.1603,198.16851 574.35232,197.10086 C571.54433,196.03321 568.58411,195.21579 565.59888,194.67944 C562.61365,194.14308 559.6034,193.8878 556.52889,193.70032 C553.45438,193.51283 550.31561,193.39316 547.21469,193.60374 C545.14741,193.74413 543.09695,194.03131 541.06671,194.36627 C539.03647,194.70124 537.02644,195.08399 535.03011,195.59164 C532.03563,196.35313 529.07196,197.39565 526.22809,198.59265 C523.38421,199.78965 520.66013,201.14112 517.98309,202.64457 C515.30604,204.14802 512.67603,205.80344 510.34286,207.71032 C508.00969,209.61719 505.97336,211.77551 503.95708,214.02157 C501.94081,216.26764 499.94459,218.60146 498.29305,220.9999 C497.74254,221.79938 497.23032,222.60604 496.80975,223.48291 C496.38918,224.35978 496.06025,225.30686 495.72681,226.25744 C495.39338,227.20802 495.05544,228.16209 494.80796,229.13231 C494.06552,232.04295 494.1372,235.09886 494.69475,238.03321 C495.06645,239.98944 495.65408,241.89165 496.57003,243.5663 C497.02801,244.40363 497.56806,245.18406 498.09877,245.97031 C498.62949,246.75655 499.15086,247.54861 499.80079,248.2107 C500.45072,248.8728 501.22922,249.40493 501.93151,249.95879 C502.6338,250.51266 503.25989,251.08825 503.95634,251.59153 C504.65279,252.09481 505.4196,252.52578 506.21215,252.8721 C508.58982,253.91107 511.19923,254.18822 513.73684,254.08992 C516.27444,253.99161 518.74024,253.51786 521.37872,253.17049 C523.13771,252.93891 524.97345,252.7635 526.85792,252.84404 C527.80016,252.88431 528.75458,252.98857 529.70216,253.10574 C532.54489,253.45727 535.32604,253.92506 538.19607,254.31048 C540.10943,254.56743 542.06229,254.78777 544.03803,254.91143 C545.0259,254.97326 546.01949,255.01092 547.02173,255.0156 C550.02847,255.02962 553.11314,254.74674 556.03951,254.23024 z" id="mode-4 position--1" class="data contour"/>
		<path d="M 555.81069 257.21831 C559.63129,256.47851 563.28153,255.18045 566.85264,254.11609 C569.53097,253.31782 572.16479,252.651 574.68216,252.29727 C577.19954,251.94354 579.60046,251.90289 581.88244,251.98626 C584.16441,252.06963 586.32743,252.27702 588.49893,252.09463 C590.67043,251.91224 592.8504,251.34007 594.87115,250.30535 C595.54473,249.96045 596.20063,249.56415 596.80782,249.07816 C597.41502,248.59217 597.97352,248.01649 598.51782,247.3858 C599.06213,246.75511 599.59225,246.0694 600.07301,245.35139 C602.95761,241.0433 604.06555,235.57203 603.67332,229.94531 C603.41184,226.19417 602.48361,222.37394 600.92888,218.85937 C599.76283,216.22345 598.24437,213.75945 596.36389,211.54411 C595.11024,210.06722 593.69568,208.70085 592.26023,207.34013 C591.5425,206.65977 590.81955,205.98083 590.06406,205.35631 C587.79759,203.48277 585.23825,202.09908 582.56203,200.88711 C577.20958,198.46318 571.38956,196.72613 565.4112,195.76217 C562.42202,195.28019 559.39325,194.99149 556.33654,194.84366 C553.27983,194.69582 550.19519,194.68887 547.12376,194.8721 C539.95709,195.29966 532.86239,196.76272 526.15963,199.08573 C523.28702,200.08131 520.4864,201.23483 517.73607,202.5143 C514.98574,203.79377 512.28569,205.19918 509.80049,206.91123 C507.31528,208.62329 505.04492,210.642 502.91532,212.77388 C500.78571,214.90576 498.79687,217.15082 497.29598,219.71007 C494.29422,224.82856 493.2443,231.2038 494.64064,236.92263 C495.57154,240.73518 497.58967,244.256 500.22482,246.93773 C502.20118,248.94902 504.52462,250.48833 506.91603,251.47042 C508.51031,252.12515 510.13479,252.53222 511.81975,252.8469 C512.66222,253.00424 513.51981,253.13848 514.37587,253.20496 C516.94406,253.40438 519.49845,252.99387 522.15454,253.07019 C524.81062,253.14651 527.56839,253.70966 530.31971,254.4072 C533.07103,255.10473 535.8159,255.93666 538.59866,256.60034 C541.38142,257.26401 544.20206,257.75943 547.09302,257.88671 C549.98398,258.014 552.94525,257.77317 555.81069,257.21831 z" id="mode-4 position-0" class="data contour"/>
		<path d="M 555.61119 260.33846 C556.53593,260.13747 557.42944,259.7974 558.33072,259.48929 C559.23199,259.18118 560.14104,258.90503 561.04055,258.58582 C561.94006,258.26661 562.83005,257.90435 563.71868,257.59544 C564.60731,257.28653 565.49459,257.03096 566.354,256.75658 C568.07281,256.20783 569.68013,255.58384 571.40343,255.14599 C572.26508,254.92706 573.15573,254.75466 573.98736,254.54973 C575.65061,254.13988 577.0778,253.59989 578.52457,253.1552 C579.24795,252.93286 579.97624,252.73435 580.70398,252.50781 C582.15947,252.05474 583.61283,251.48958 585.05793,251.10086 C585.78048,250.9065 586.50097,250.75625 587.23486,250.598 C589.43653,250.12323 591.75884,249.57645 594.12583,248.79842 C594.91483,248.53908 595.7088,248.25405 596.37292,247.79774 C597.03704,247.34144 597.57132,246.71386 598.08749,246.01478 C598.60365,245.3157 599.10172,244.54511 599.56873,243.77164 C600.50275,242.2247 601.31258,240.66621 602.11608,239.02957 C602.51782,238.21124 602.91799,237.37338 603.24389,236.52414 C603.8957,234.82567 604.25048,233.08171 604.48444,231.25198 C604.60142,230.33711 604.68821,229.4008 604.71977,228.4584 C604.84603,224.6888 604.08883,220.82177 602.5485,217.32365 C601.39325,214.70005 599.79749,212.28397 597.76585,210.16248 C596.41143,208.74815 594.86328,207.46475 593.30186,206.21393 C592.52115,205.58853 591.73713,204.97126 590.91628,204.41203 C588.45375,202.73434 585.6599,201.57892 582.80518,200.68998 C579.95046,199.80104 577.03488,199.17856 574.09899,198.53266 C571.1631,197.88676 568.2069,197.21743 565.21476,196.77868 C562.22262,196.33992 559.19452,196.13174 556.1546,196.03183 C553.11468,195.93192 550.06292,195.94029 547.01856,196.10602 C539.91506,196.49272 532.85183,197.73615 526.07347,199.5956 C523.16847,200.39251 520.31578,201.30256 517.49846,202.36522 C514.68113,203.42788 511.89915,204.64315 509.25525,206.14087 C506.61135,207.63859 504.10553,209.41876 501.87265,211.47452 C499.63977,213.53027 497.67982,215.86161 496.28779,218.48835 C493.50372,223.74184 492.99133,230.17693 494.63954,235.83747 C495.73835,239.61116 497.79744,243.0406 500.58585,245.68354 C502.67716,247.66574 505.17872,249.20553 507.58849,250.14297 C509.19499,250.76793 510.7607,251.12518 512.44247,251.60287 C513.28336,251.84172 514.15326,252.11067 515.02491,252.28933 C517.63988,252.8253 520.27067,252.54854 522.92773,252.99596 C525.58479,253.44338 528.26812,254.61496 530.94739,255.73774 C533.62667,256.86051 536.30189,257.93449 538.99344,258.86036 C541.68499,259.78624 544.39287,260.56402 547.16215,260.76792 C549.00833,260.90386 550.8818,260.78475 552.78092,260.66249 C553.73048,260.60137 554.68645,260.53945 555.61119,260.33846" id="mode-4 position-1" class="data contour"/>
		<path d="M 555.4198 263.41705 C556.31892,263.14943 557.14467,262.6604 558.01698,262.34301 C558.88929,262.02563 559.80817,261.8799 560.69001,261.52694 C561.57185,261.17398 562.41664,260.61379 563.2577,260.21491 C564.09877,259.81602 564.93611,259.57844 565.78718,259.33518 C566.63825,259.09192 567.50305,258.84298 568.30707,258.50635 C569.1111,258.16973 569.85434,257.7454 570.69585,257.47465 C571.53735,257.20389 572.47713,257.0867 573.29817,256.82819 C574.94025,256.31118 576.10739,255.22892 577.44773,254.34409 C578.11789,253.90168 578.83136,253.50862 579.54398,253.03144 C580.96922,252.07709 582.39108,250.78625 583.79665,250.02311 C584.49944,249.64154 585.19816,249.3919 585.93992,249.13938 C587.42343,248.63433 589.07908,248.11775 590.76642,247.78504 C591.61009,247.61868 592.46169,247.49829 593.36981,247.32915 C594.27794,247.16001 595.2426,246.94212 595.95063,246.50586 C596.65867,246.0696 597.11009,245.41496 597.60145,244.65365 C598.0928,243.89235 598.6241,243.02437 599.11291,242.18868 C600.09052,240.51731 600.89816,238.97511 601.82737,237.35103 C602.29198,236.53899 602.78698,235.70648 603.27817,234.89206 C603.76937,234.07765 604.25676,233.28133 604.56425,232.44286 C604.87174,231.60439 604.99933,230.72378 605.17603,229.79698 C605.35274,228.87019 605.57855,227.89722 605.73825,226.93428 C606.05765,225.00838 606.11259,223.12259 605.806,221.26418 C605.4994,219.40577 604.83126,217.57474 604.0816,215.81017 C603.33194,214.0456 602.50075,212.34747 601.24636,210.89035 C600.61916,210.16178 599.88617,209.49347 599.13507,208.82941 C596.88177,206.83725 594.46559,204.88345 591.76692,203.44901 C589.06825,202.01457 586.0871,201.09951 583.06074,200.51661 C580.03439,199.93372 576.96283,199.68299 573.96328,199.25449 C570.96373,198.826 568.03619,198.21972 565.03442,197.8248 C562.03265,197.42988 558.95666,197.24631 555.94908,197.2042 C553.94403,197.17612 551.96939,197.21092 549.96249,197.24504 C548.95904,197.2621 547.94752,197.27899 546.93574,197.31875 C542.88864,197.4778 538.83737,198.00277 534.86257,198.57628 C531.88147,199.0064 528.94338,199.46383 526.00887,200.06704 C523.07437,200.67026 520.14346,201.41927 517.25246,202.25711 C515.32512,202.81567 513.41553,203.41371 511.51807,204.11829 C510.56935,204.47058 509.62365,204.84951 508.69503,205.29417 C506.83779,206.1835 505.04884,207.3358 503.32536,208.45956 C502.46361,209.02145 501.61824,209.5762 500.82643,210.19446 C498.45101,212.04924 496.55772,214.4756 495.2748,217.22062 C494.41953,219.05064 493.83553,221.02228 493.54743,223.01049 C493.40338,224.0046 493.33331,225.00286 493.31559,225.99608 C493.26241,228.97574 493.68036,231.91011 494.61227,234.70117 C495.23355,236.56188 496.08326,238.3589 497.1536,240.00627 C498.22394,241.65364 499.51491,243.15136 500.97706,244.45411 C503.17028,246.40825 505.74867,247.92374 508.25565,248.79797 C509.0913,249.08937 509.91903,249.30953 510.69609,249.54637 C511.47316,249.7832 512.19957,250.0367 513.02252,250.37095 C513.84547,250.7052 514.76495,251.12018 515.67307,251.40916 C518.39744,252.27608 521.01956,252.00885 523.67726,252.88399 C525.44906,253.46741 527.23668,254.55855 528.99816,255.54994 C529.87889,256.04563 530.7531,256.51639 531.60133,257.03002 C532.44956,257.54365 533.27182,258.10015 534.13055,258.5612 C534.98929,259.02226 535.88451,259.38786 536.76726,259.80394 C537.65002,260.22002 538.52032,260.68657 539.4052,261.10529 C540.29008,261.52401 541.18954,261.89489 542.03805,262.27966 C542.88657,262.66442 543.68413,263.06305 544.54856,263.27261 C545.41298,263.48216 546.34425,263.50263 547.24814,263.53959 C549.0559,263.6135 550.75408,263.75337 552.61681,263.73838 C553.54817,263.73088 554.52067,263.68467 555.4198,263.41705 z" id="mode-4 position-2" class="data contour"/>
		<text font-size="14" class="shapemode label" text-anchor="middle" x="549.67961" y="454.5">Shape Mode 4</text>
		<text font-size="12" class="shapemode label" text-anchor="middle" x="549.67961" y="467"> (2.9% of total variance)</text>
	</g>
	<g id="scale bar" class="layer">
		<g id="scalebar lines">
			<line id="scalebar" class="scalebar" x1="30" x2="67.530761" y1="480" y2="480"/>
			<line id="scalebar left tic" class="scalebar tic" x1="30" x2="30" y1="478.5" y2="481.5"/>
			<line id="scalebar right tic" class="scalebar tic" x1="67.530761" x2="67.530761" y1="478.5" y2="481.5"/>
		</g>
		<text font-size="12" class="scalebar label" text-anchor="middle" x="48.765381" y="493.5">25 pixels</text>
	</g>
	<g id="legend" class="layer">
		<g id="-2 s.d. row">
			<line id="position--2" class="data legend" x1="550" x2="600" y1="19" y2="19"/>
			<text font-size="12" class="legend label" text-anchor="start" x="603" y="22">-2 s.d.</text>
		</g>
		<g id="-1 s.d. row">
			<line id="position--1" class="data legend" x1="550" x2="600" y1="34" y2="34"/>
			<text font-size="12" class="legend label" text-anchor="start" x="603" y="37">-1 s.d.</text>
		</g>
		<g id="mean row">
			<line id="position-0" class="data legend" x1="550" x2="600" y1="49" y2="49"/>
			<text font-size="12" class="legend label" text-anchor="start" x="603" y="52">mean</text>
		</g>
		<g id="1 s.d. row">
			<line id="position-1" class="data legend" x1="550" x2="600" y1="64" y2="64"/>
			<text font-size="12" class="legend label" text-anchor="start" x="603" y="67">1 s.d.</text>
		</g>
		<g id="2 s.d. row">
			<line id="position-2" class="data legend" x1="550" x2="600" y1="79" y2="79"/>
			<text font-size="12" class="legend label" text-anchor="start" x="603" y="82">2 s.d.</text>
		</g>
	</g>
	<g id="title" class="layer">
		<text font-size="14" class="plot title" text-anchor="middle" x="320" y="14">kModel</text>
	</g>
</svg>
